<svg width="267" height="268" viewBox="0 0 267 268" fill="none" xmlns="http://www.w3.org/2000/svg">
<g filter="url(#filter0_d)">
<path d="M161.168 144.504H9.31713C7.90743 144.501 6.55592 143.538 5.5591 141.826C4.56229 140.114 4.00159 137.793 4 135.372V9.13223C4.00159 6.71105 4.56229 4.38981 5.5591 2.67778C6.55592 0.965743 7.90743 0.00272563 9.31713 0H161.168C162.578 0.00272563 163.929 0.965743 164.926 2.67778C165.923 4.38981 166.484 6.71105 166.485 9.13223V135.372C166.484 137.793 165.923 140.114 164.926 141.826C163.929 143.538 162.578 144.501 161.168 144.504V144.504ZM9.31713 1.07438C8.07328 1.0768 6.88077 1.92652 6.00123 3.43714C5.12169 4.94775 4.62695 6.9959 4.62554 9.13223V135.372C4.62695 137.508 5.12169 139.556 6.00123 141.067C6.88077 142.578 8.07328 143.427 9.31713 143.43H161.168C162.412 143.427 163.605 142.578 164.484 141.067C165.364 139.556 165.858 137.508 165.86 135.372V9.13223C165.858 6.9959 165.364 4.94775 164.484 3.43714C163.605 1.92652 162.412 1.0768 161.168 1.07438H9.31713Z" fill="#7B73DE"/>
<path d="M33.166 31.4257C34.7207 31.4257 35.981 29.2611 35.981 26.5909C35.981 23.9208 34.7207 21.7562 33.166 21.7562C31.6114 21.7562 30.3511 23.9208 30.3511 26.5909C30.3511 29.2611 31.6114 31.4257 33.166 31.4257Z" fill="#7B73DE"/>
<path d="M33.166 49.6902C34.7207 49.6902 35.981 47.5256 35.981 44.8555C35.981 42.1853 34.7207 40.0208 33.166 40.0208C31.6114 40.0208 30.3511 42.1853 30.3511 44.8555C30.3511 47.5256 31.6114 49.6902 33.166 49.6902Z" fill="#7B73DE"/>
<path d="M33.166 67.9546C34.7207 67.9546 35.981 65.79 35.981 63.1199C35.981 60.4497 34.7207 58.2852 33.166 58.2852C31.6114 58.2852 30.3511 60.4497 30.3511 63.1199C30.3511 65.79 31.6114 67.9546 33.166 67.9546Z" fill="#7B73DE"/>
<path d="M33.166 86.219C34.7207 86.219 35.981 84.0544 35.981 81.3843C35.981 78.7141 34.7207 76.5496 33.166 76.5496C31.6114 76.5496 30.3511 78.7141 30.3511 81.3843C30.3511 84.0544 31.6114 86.219 33.166 86.219Z" fill="#7B73DE"/>
<path d="M80.5511 122.748C82.1057 122.748 83.366 120.583 83.366 117.913C83.366 115.243 82.1057 113.078 80.5511 113.078C78.9964 113.078 77.7361 115.243 77.7361 117.913C77.7361 120.583 78.9964 122.748 80.5511 122.748Z" fill="#7B73DE"/>
<path d="M60.2208 122.748C61.7755 122.748 63.0358 120.583 63.0358 117.913C63.0358 115.243 61.7755 113.078 60.2208 113.078C58.6662 113.078 57.4059 115.243 57.4059 117.913C57.4059 120.583 58.6662 122.748 60.2208 122.748Z" fill="#7B73DE"/>
<path d="M122.463 122.748C124.017 122.748 125.278 120.583 125.278 117.913C125.278 115.243 124.017 113.078 122.463 113.078C120.908 113.078 119.648 115.243 119.648 117.913C119.648 120.583 120.908 122.748 122.463 122.748Z" fill="#7B73DE"/>
<path d="M101.194 122.748C102.749 122.748 104.009 120.583 104.009 117.913C104.009 115.243 102.749 113.078 101.194 113.078C99.6394 113.078 98.3791 115.243 98.3791 117.913C98.3791 120.583 99.6394 122.748 101.194 122.748Z" fill="#7B73DE"/>
<path d="M139.821 27.1281H47.2408C47.1579 27.1281 47.0783 27.0715 47.0196 26.9707C46.961 26.87 46.928 26.7334 46.928 26.5909C46.928 26.4484 46.961 26.3118 47.0196 26.2111C47.0783 26.1103 47.1579 26.0537 47.2408 26.0537H139.821C139.904 26.0537 139.984 26.1103 140.043 26.2111C140.101 26.3118 140.134 26.4484 140.134 26.5909C140.134 26.7334 140.101 26.87 140.043 26.9707C139.984 27.0715 139.904 27.1281 139.821 27.1281Z" fill="#7B73DE"/>
<path d="M139.821 45.3925H47.2408C47.1579 45.3925 47.0783 45.3359 47.0196 45.2352C46.961 45.1344 46.928 44.9978 46.928 44.8553C46.928 44.7128 46.961 44.5762 47.0196 44.4755C47.0783 44.3747 47.1579 44.3181 47.2408 44.3181H139.821C139.904 44.3181 139.984 44.3747 140.043 44.4755C140.101 44.5762 140.134 44.7128 140.134 44.8553C140.134 44.9978 140.101 45.1344 140.043 45.2352C139.984 45.3359 139.904 45.3925 139.821 45.3925Z" fill="#7B73DE"/>
<path d="M139.821 63.657H47.2408C47.1579 63.657 47.0783 63.6004 47.0196 63.4996C46.961 63.3989 46.928 63.2623 46.928 63.1198C46.928 62.9773 46.961 62.8407 47.0196 62.74C47.0783 62.6392 47.1579 62.5826 47.2408 62.5826H139.821C139.904 62.5826 139.984 62.6392 140.043 62.74C140.101 62.8407 140.134 62.9773 140.134 63.1198C140.134 63.2623 140.101 63.3989 140.043 63.4996C139.984 63.6004 139.904 63.657 139.821 63.657Z" fill="#7B73DE"/>
<path d="M139.821 81.9214H47.2408C47.1579 81.9214 47.0783 81.8648 47.0196 81.7641C46.961 81.6633 46.928 81.5267 46.928 81.3842C46.928 81.2418 46.961 81.1051 47.0196 81.0044C47.0783 80.9037 47.1579 80.847 47.2408 80.847H139.821C139.904 80.847 139.984 80.9037 140.043 81.0044C140.101 81.1051 140.134 81.2418 140.134 81.3842C140.134 81.5267 140.101 81.6633 140.043 81.7641C139.984 81.8648 139.904 81.9214 139.821 81.9214Z" fill="#7B73DE"/>
<path d="M64.756 100.186H55.6856C55.271 100.185 54.8735 99.9018 54.5803 99.3983C54.2872 98.8947 54.1222 98.212 54.1218 97.4999V82.9958C54.1222 82.2837 54.2872 81.601 54.5803 81.0974C54.8735 80.5939 55.271 80.3106 55.6856 80.3098H64.756C65.1706 80.3106 65.5681 80.5939 65.8613 81.0974C66.1545 81.601 66.3194 82.2837 66.3199 82.9958V97.4999C66.3194 98.212 66.1545 98.8947 65.8613 99.3983C65.5681 99.9018 65.1706 100.185 64.756 100.186V100.186Z" fill="#C4C4C4"/>
<path d="M85.0863 100.186H76.0159C75.6012 100.185 75.2037 99.9019 74.9106 99.3984C74.6174 98.8948 74.4525 98.2121 74.452 97.5V64.7315C74.4525 64.0194 74.6174 63.3367 74.9106 62.8331C75.2037 62.3296 75.6012 62.0463 76.0159 62.0455H85.0863C85.5009 62.0463 85.8984 62.3296 86.1915 62.8331C86.4847 63.3367 86.6496 64.0194 86.6501 64.7315V97.5C86.6496 98.2121 86.4847 98.8948 86.1915 99.3984C85.8984 99.9019 85.5009 100.185 85.0863 100.186V100.186Z" fill="#C4C4C4"/>
<path d="M105.729 100.186H96.6588C96.2442 100.185 95.8467 99.9019 95.5535 99.3984C95.2604 98.8948 95.0954 98.2121 95.095 97.5V46.467C95.0954 45.7548 95.2604 45.0721 95.5535 44.5686C95.8467 44.0651 96.2442 43.7818 96.6588 43.781H105.729C106.144 43.7818 106.541 44.0651 106.835 44.5686C107.128 45.0721 107.293 45.7548 107.293 46.467V97.5C107.293 98.2121 107.128 98.8948 106.835 99.3984C106.541 99.9019 106.144 100.185 105.729 100.186V100.186Z" fill="#C4C4C4"/>
<path d="M126.998 100.186H117.927C117.513 100.185 117.115 99.9018 116.822 99.3983C116.529 98.8948 116.364 98.2121 116.363 97.5V28.7397C116.364 28.0276 116.529 27.3449 116.822 26.8413C117.115 26.3378 117.513 26.0545 117.927 26.0537H126.998C127.412 26.0545 127.81 26.3378 128.103 26.8413C128.396 27.3449 128.561 28.0276 128.562 28.7397V97.5C128.561 98.2121 128.396 98.8948 128.103 99.3983C127.81 99.9018 127.412 100.185 126.998 100.186V100.186Z" fill="#C4C4C4"/>
<path d="M211.51 256.962C208.697 252.88 206.989 246.432 207.437 240.154C207.885 233.877 210.66 228.106 214.259 226.773C217.859 225.44 221.962 229.13 223.055 235.169C223.657 223.526 224.351 211.395 227.955 201.479C231.218 192.501 236.871 186.077 242.997 184.928C249.123 183.778 255.573 188.119 259.394 196.424C263.214 204.728 264.15 216.801 261.474 226.336C259.503 233.359 255.871 238.586 252.066 242.839C239.77 256.465 225.023 262.005 210.538 258.442L211.51 256.962Z" fill="#2F4A35"/>
<path d="M253.336 188.36C248.281 195.431 243.644 203.34 239.491 211.971C232.992 225.434 227.733 240.527 223.898 256.727C223.617 257.909 224.734 258.423 225.012 257.254C231.288 230.927 241.307 207.722 254.153 189.763C254.73 188.956 253.908 187.56 253.336 188.36V188.36Z" fill="#1B0D0D"/>
<path d="M181.845 109.081C181.49 109.079 181.135 109.018 180.786 108.898H180.786C180.723 108.877 180.659 108.853 180.595 108.828L103.998 78.1974C103.166 77.8645 102.614 76.9656 102.713 76.1061C102.754 75.853 102.836 75.6247 102.949 75.4463C103.061 75.2678 103.2 75.1462 103.35 75.0949C103.72 74.9199 104.109 74.905 104.483 75.0516L181.556 102.696C183.291 103.319 184.496 105.148 184.299 106.86C184.195 107.757 183.736 108.452 183.005 108.817C182.627 108.998 182.237 109.087 181.845 109.081Z" fill="#193B59"/>
<path d="M165.619 104.843C166.016 105.243 166.458 105.489 166.916 105.564C167.374 105.638 167.836 105.539 168.269 105.274C168.702 105.009 169.096 104.584 169.423 104.029C169.75 103.475 170.003 102.803 170.162 102.063L181.337 102.463L178.241 94.0225L168.104 94.9364C167.362 94.5579 166.565 94.6601 165.864 95.2236C165.163 95.7872 164.606 96.7729 164.3 97.994C163.994 99.2151 163.959 100.587 164.202 101.849C164.445 103.111 164.95 104.176 165.619 104.843V104.843Z" fill="#FFB8B8"/>
<path d="M170.473 101.777L170.415 95.8943C170.411 95.2871 170.539 94.6992 170.774 94.2463C171.01 93.7934 171.335 93.5083 171.687 93.4471L191.767 90.1188L208.498 80.6975C209.003 80.4131 209.536 80.304 210.065 80.3765C210.595 80.4489 211.111 80.7016 211.584 81.1196C212.056 81.5377 212.475 82.1129 212.817 82.8118C213.159 83.5106 213.416 84.3192 213.575 85.1906C213.733 86.0619 213.789 86.9785 213.739 87.8872C213.689 88.7959 213.534 89.6785 213.284 90.4837C213.034 91.2889 212.693 92.0006 212.281 92.5774C211.869 93.1542 211.395 93.5847 210.885 93.8438L192.367 103.261L171.916 104.153C171.607 104.166 171.304 104.004 171.053 103.692C170.803 103.38 170.619 102.935 170.531 102.427C170.494 102.216 170.475 101.997 170.473 101.777V101.777Z" fill="#193B59"/>
<path d="M200.189 253.437L196.354 253.436L194.53 228.033L200.19 228.034L200.189 253.437Z" fill="#FFB8B8"/>
<path d="M201.167 259.82L188.803 259.82V259.551C188.803 258.466 188.927 257.391 189.169 256.388C189.411 255.385 189.766 254.474 190.212 253.707C190.659 252.939 191.19 252.33 191.774 251.915C192.358 251.499 192.983 251.286 193.615 251.286H193.616L201.167 251.286L201.167 259.82Z" fill="#AE7332"/>
<path d="M211.449 253.437L207.614 253.436L205.79 228.033L211.449 228.034L211.449 253.437Z" fill="#FFB8B8"/>
<path d="M212.427 259.82L200.063 259.82V259.551C200.063 258.466 200.187 257.391 200.429 256.388C200.671 255.385 201.025 254.474 201.472 253.707C201.919 252.939 202.45 252.33 203.034 251.915C203.617 251.499 204.243 251.286 204.875 251.286H204.875L212.427 251.286L212.427 259.82Z" fill="#AE7332"/>
<path d="M214.022 150.775L213.107 244.082C213.104 244.377 213.065 244.669 212.994 244.937C212.923 245.206 212.82 245.447 212.692 245.644C212.564 245.842 212.413 245.992 212.25 246.085C212.087 246.178 211.914 246.212 211.742 246.186L207.255 245.485C206.961 245.439 206.686 245.216 206.478 244.854C206.271 244.493 206.144 244.017 206.121 243.511L203.494 185.309C203.488 185.172 203.452 185.045 203.393 184.953C203.334 184.861 203.256 184.811 203.176 184.814C203.097 184.816 203.02 184.871 202.963 184.967C202.906 185.063 202.873 185.193 202.87 185.33L201.557 244.865C201.545 245.42 201.408 245.946 201.175 246.331C200.941 246.717 200.63 246.932 200.307 246.932H195.495C195.176 246.932 194.869 246.723 194.637 246.348C194.405 245.974 194.265 245.461 194.246 244.915L190.877 150.238L210.895 141.643L214.022 150.775Z" fill="#193B59"/>
<path d="M199.503 63.1614C203.746 63.1614 207.185 57.2543 207.185 49.9675C207.185 42.6807 203.746 36.7736 199.503 36.7736C195.26 36.7736 191.821 42.6807 191.821 49.9675C191.821 57.2543 195.26 63.1614 199.503 63.1614Z" fill="#FFB8B8"/>
<path d="M190.192 153.551C190.059 153.33 189.952 153.066 189.879 152.774C189.806 152.483 189.767 152.169 189.765 151.851L189.247 88.2247C189.216 84.9881 189.783 81.8178 190.866 79.1692C191.95 76.5206 193.494 74.53 195.278 73.4834C195.997 67.8754 199.828 67.173 202.061 67.2569C202.618 67.2775 203.164 67.5286 203.653 67.989C204.142 68.4494 204.559 69.1054 204.869 69.9014L206.47 74.0253L209.998 77.5774C211.63 79.2142 212.918 81.6995 213.676 84.6748C214.433 87.6501 214.62 90.9616 214.211 94.1317L213.668 98.3752C211.755 113.395 211.937 128.978 214.199 143.854L215.292 151.011C215.349 151.384 215.353 151.775 215.304 152.151C215.255 152.527 215.155 152.878 215.011 153.174C214.867 153.47 214.684 153.702 214.477 153.852C214.271 154.002 214.046 154.064 213.822 154.035L212.553 153.867C212.223 153.824 211.913 153.583 211.677 153.186C211.44 152.79 211.293 152.262 211.26 151.698L211.05 148.089C211.046 148.023 211.028 147.962 211 147.917C210.971 147.872 210.933 147.848 210.895 147.848C210.856 147.848 210.818 147.872 210.79 147.917C210.761 147.962 210.743 148.023 210.739 148.089L210.536 151.583C210.501 152.173 210.342 152.721 210.088 153.122C209.833 153.523 209.502 153.75 209.157 153.759L191.194 154.234C191.186 154.234 191.179 154.235 191.172 154.235C190.805 154.236 190.454 153.99 190.192 153.551V153.551Z" fill="#193B59"/>
<path d="M200.104 57.5728C200.135 59.4379 200.889 60.5169 201.815 61.4939C202.741 62.4708 203.823 62.8944 204.883 63.303C205.025 63.4329 205.184 63.4975 205.346 63.4907C205.507 63.4839 205.664 63.4059 205.803 63.2642C205.941 63.1225 206.056 62.9219 206.136 62.6817C206.216 62.4415 206.259 62.1699 206.26 61.8931L207.233 55.5418C207.577 53.5129 207.827 51.4406 207.981 49.3442C208.215 45.3104 207.659 40.971 206.019 38.0544C204.38 35.1379 201.537 34.1018 199.573 36.349C197.241 31.235 186.585 42.5336 189.214 46.0897C189.681 46.7224 190.396 45.9219 190.99 45.8443C191.583 45.7667 192.249 45.946 192.626 46.7372C193.118 47.7709 192.904 49.3106 193.107 50.6001C193.191 51.0538 193.326 51.4744 193.505 51.8378C193.684 52.2012 193.904 52.5 194.15 52.7172C194.397 52.9343 194.666 53.0655 194.942 53.103C195.219 53.1405 195.497 53.0838 195.76 52.9359C196.251 52.5206 196.713 52.0109 197.136 51.4165C197.592 50.8956 198.167 50.5107 198.68 50.8392C199.355 51.2722 199.595 52.6928 199.656 53.9268C199.759 55.1575 199.909 56.3755 200.104 57.5728V57.5728Z" fill="#E4E4E4"/>
<path d="M257.011 260H137.845C137.762 260 137.683 259.943 137.624 259.843C137.565 259.742 137.532 259.605 137.532 259.463C137.532 259.32 137.565 259.184 137.624 259.083C137.683 258.982 137.762 258.926 137.845 258.926H257.011C257.094 258.926 257.174 258.982 257.232 259.083C257.291 259.184 257.324 259.32 257.324 259.463C257.324 259.605 257.291 259.742 257.232 259.843C257.174 259.943 257.094 260 257.011 260Z" fill="#193B59"/>
<path opacity="0.2" d="M198.31 92.9338L197.059 119.256L190.491 146.653L200.187 119.793L198.31 92.9338Z" fill="black"/>
<path d="M188.955 156.855C189.313 156.361 189.604 155.737 189.807 155.029C190.01 154.32 190.121 153.544 190.13 152.754C190.139 151.965 190.048 151.181 189.862 150.459C189.676 149.737 189.4 149.093 189.054 148.574L193.238 130.774L187.545 132.748L184.444 149.349C183.975 150.406 183.748 151.722 183.806 153.048C183.863 154.374 184.202 155.617 184.758 156.543C185.314 157.468 186.049 158.011 186.822 158.068C187.595 158.126 188.354 157.694 188.955 156.855V156.855Z" fill="#FFB8B8"/>
<path d="M188.65 149.975L185.427 147.98C185.095 147.771 184.821 147.357 184.658 146.818C184.495 146.279 184.455 145.655 184.547 145.069L189.863 111.645L190.674 81.4374C190.698 80.5256 190.828 79.6313 191.055 78.8064C191.283 77.9815 191.603 77.2425 191.999 76.6324C192.394 76.0222 192.856 75.5531 193.358 75.2524C193.859 74.9516 194.391 74.8252 194.921 74.8804C195.452 74.9357 195.971 75.1715 196.448 75.5741C196.924 75.9768 197.35 76.5383 197.699 77.226C198.049 77.9136 198.315 78.7138 198.483 79.5798C198.651 80.4459 198.717 81.3606 198.677 82.2708L197.229 115.347L190.455 148.502C190.353 149.003 190.157 149.432 189.898 149.723C189.64 150.014 189.332 150.151 189.024 150.113C188.896 150.096 188.77 150.05 188.65 149.975Z" fill="#193B59"/>
<path d="M139.821 103.096H47.2408C47.1578 103.096 47.0782 103.04 47.0196 102.939C46.9609 102.838 46.928 102.702 46.928 102.559C46.928 102.417 46.9609 102.28 47.0196 102.179C47.0782 102.079 47.1578 102.022 47.2408 102.022H139.821C139.904 102.022 139.984 102.079 140.043 102.179C140.101 102.28 140.134 102.417 140.134 102.559C140.134 102.702 140.101 102.838 140.043 102.939C139.984 103.04 139.904 103.096 139.821 103.096Z" fill="#193B59"/>
</g>
<defs>
<filter id="filter0_d" x="0" y="0" width="267" height="268" filterUnits="userSpaceOnUse" color-interpolation-filters="sRGB">
<feFlood flood-opacity="0" result="BackgroundImageFix"/>
<feColorMatrix in="SourceAlpha" type="matrix" values="0 0 0 0 0 0 0 0 0 0 0 0 0 0 0 0 0 0 127 0"/>
<feOffset dy="4"/>
<feGaussianBlur stdDeviation="2"/>
<feColorMatrix type="matrix" values="0 0 0 0 0 0 0 0 0 0 0 0 0 0 0 0 0 0 0.25 0"/>
<feBlend mode="normal" in2="BackgroundImageFix" result="effect1_dropShadow"/>
<feBlend mode="normal" in="SourceGraphic" in2="effect1_dropShadow" result="shape"/>
</filter>
</defs>
</svg>
