<svg width="267" height="278" viewBox="0 0 267 278" fill="none" xmlns="http://www.w3.org/2000/svg">
<g filter="url(#filter0_d)">
<path d="M161.168 150.062H9.31713C7.90743 150.059 6.55592 149.059 5.5591 147.281C4.56229 145.503 4.00159 143.093 4 140.579V9.48347C4.00159 6.96917 4.56229 4.55865 5.5591 2.78077C6.55592 1.00289 7.90743 0.00283046 9.31713 0H161.168C162.578 0.00283046 163.929 1.00289 164.926 2.78077C165.923 4.55865 166.484 6.96917 166.485 9.48347V140.579C166.484 143.093 165.923 145.503 164.926 147.281C163.929 149.059 162.578 150.059 161.168 150.062V150.062ZM9.31713 1.1157C8.07328 1.11821 6.88077 2.00062 6.00123 3.56933C5.12169 5.13805 4.62695 7.26497 4.62554 9.48347V140.579C4.62695 142.797 5.12169 144.924 6.00123 146.493C6.88077 148.061 8.07328 148.944 9.31713 148.946H161.168C162.412 148.944 163.605 148.061 164.484 146.493C165.364 144.924 165.858 142.797 165.86 140.579V9.48347C165.858 7.26497 165.364 5.13805 164.484 3.56933C163.605 2.00062 162.412 1.11821 161.168 1.1157H9.31713Z" fill="#7B73DE"/>
<path d="M33.166 32.6343C34.7207 32.6343 35.981 30.3865 35.981 27.6137C35.981 24.8408 34.7207 22.593 33.166 22.593C31.6114 22.593 30.3511 24.8408 30.3511 27.6137C30.3511 30.3865 31.6114 32.6343 33.166 32.6343Z" fill="#7B73DE"/>
<path d="M33.166 51.6013C34.7207 51.6013 35.981 49.3534 35.981 46.5806C35.981 43.8078 34.7207 41.5599 33.166 41.5599C31.6114 41.5599 30.3511 43.8078 30.3511 46.5806C30.3511 49.3534 31.6114 51.6013 33.166 51.6013Z" fill="#7B73DE"/>
<path d="M33.166 70.5682C34.7207 70.5682 35.981 68.3203 35.981 65.5475C35.981 62.7747 34.7207 60.5269 33.166 60.5269C31.6114 60.5269 30.3511 62.7747 30.3511 65.5475C30.3511 68.3203 31.6114 70.5682 33.166 70.5682Z" fill="#7B73DE"/>
<path d="M33.166 89.5351C34.7207 89.5351 35.981 87.2873 35.981 84.5144C35.981 81.7416 34.7207 79.4938 33.166 79.4938C31.6114 79.4938 30.3511 81.7416 30.3511 84.5144C30.3511 87.2873 31.6114 89.5351 33.166 89.5351Z" fill="#7B73DE"/>
<path d="M80.5511 127.469C82.1057 127.469 83.366 125.221 83.366 122.448C83.366 119.675 82.1057 117.428 80.5511 117.428C78.9964 117.428 77.7361 119.675 77.7361 122.448C77.7361 125.221 78.9964 127.469 80.5511 127.469Z" fill="#7B73DE"/>
<path d="M60.2208 127.469C61.7755 127.469 63.0358 125.221 63.0358 122.448C63.0358 119.675 61.7755 117.428 60.2208 117.428C58.6662 117.428 57.4059 119.675 57.4059 122.448C57.4059 125.221 58.6662 127.469 60.2208 127.469Z" fill="#7B73DE"/>
<path d="M122.463 127.469C124.017 127.469 125.278 125.221 125.278 122.448C125.278 119.675 124.017 117.428 122.463 117.428C120.908 117.428 119.648 119.675 119.648 122.448C119.648 125.221 120.908 127.469 122.463 127.469Z" fill="#7B73DE"/>
<path d="M101.194 127.469C102.749 127.469 104.009 125.221 104.009 122.448C104.009 119.675 102.749 117.428 101.194 117.428C99.6394 117.428 98.3791 119.675 98.3791 122.448C98.3791 125.221 99.6394 127.469 101.194 127.469Z" fill="#7B73DE"/>
<path d="M139.821 28.1715H47.2408C47.1579 28.1715 47.0783 28.1127 47.0196 28.0081C46.961 27.9035 46.928 27.7616 46.928 27.6136C46.928 27.4657 46.961 27.3238 47.0196 27.2192C47.0783 27.1146 47.1579 27.0558 47.2408 27.0558H139.821C139.904 27.0558 139.984 27.1146 140.043 27.2192C140.101 27.3238 140.134 27.4657 140.134 27.6136C140.134 27.7616 140.101 27.9035 140.043 28.0081C139.984 28.1127 139.904 28.1715 139.821 28.1715Z" fill="#7B73DE"/>
<path d="M139.821 47.1384H47.2408C47.1579 47.1384 47.0783 47.0796 47.0196 46.975C46.961 46.8704 46.928 46.7285 46.928 46.5806C46.928 46.4326 46.961 46.2907 47.0196 46.1861C47.0783 46.0815 47.1579 46.0227 47.2408 46.0227H139.821C139.904 46.0227 139.984 46.0815 140.043 46.1861C140.101 46.2907 140.134 46.4326 140.134 46.5806C140.134 46.7285 140.101 46.8704 140.043 46.975C139.984 47.0796 139.904 47.1384 139.821 47.1384Z" fill="#7B73DE"/>
<path d="M139.821 66.1054H47.2408C47.1579 66.1054 47.0783 66.0466 47.0196 65.942C46.961 65.8374 46.928 65.6955 46.928 65.5476C46.928 65.3996 46.961 65.2577 47.0196 65.1531C47.0783 65.0485 47.1579 64.9897 47.2408 64.9897H139.821C139.904 64.9897 139.984 65.0485 140.043 65.1531C140.101 65.2577 140.134 65.3996 140.134 65.5476C140.134 65.6955 140.101 65.8374 140.043 65.942C139.984 66.0466 139.904 66.1054 139.821 66.1054Z" fill="#7B73DE"/>
<path d="M139.821 85.0723H47.2408C47.1579 85.0723 47.0783 85.0136 47.0196 84.9089C46.961 84.8043 46.928 84.6625 46.928 84.5145C46.928 84.3666 46.961 84.2247 47.0196 84.1201C47.0783 84.0154 47.1579 83.9567 47.2408 83.9567H139.821C139.904 83.9567 139.984 84.0154 140.043 84.1201C140.101 84.2247 140.134 84.3666 140.134 84.5145C140.134 84.6625 140.101 84.8043 140.043 84.9089C139.984 85.0136 139.904 85.0723 139.821 85.0723Z" fill="#7B73DE"/>
<path d="M64.756 104.039H55.6856C55.271 104.038 54.8735 103.744 54.5803 103.221C54.2872 102.698 54.1222 101.989 54.1218 101.25V86.1879C54.1222 85.4484 54.2872 84.7395 54.5803 84.2166C54.8735 83.6937 55.271 83.3995 55.6856 83.3987H64.756C65.1706 83.3995 65.5681 83.6937 65.8613 84.2166C66.1545 84.7395 66.3194 85.4484 66.3199 86.1879V101.25C66.3194 101.989 66.1545 102.698 65.8613 103.221C65.5681 103.744 65.1706 104.038 64.756 104.039V104.039Z" fill="#C4C4C4"/>
<path d="M85.0863 104.039H76.0159C75.6012 104.038 75.2037 103.744 74.9106 103.221C74.6174 102.698 74.4525 101.99 74.452 101.25V67.2211C74.4525 66.4816 74.6174 65.7727 74.9106 65.2498C75.2037 64.7269 75.6012 64.4327 76.0159 64.4319H85.0863C85.5009 64.4327 85.8984 64.7269 86.1915 65.2498C86.4847 65.7727 86.6496 66.4816 86.6501 67.2211V101.25C86.6496 101.99 86.4847 102.698 86.1915 103.221C85.8984 103.744 85.5009 104.038 85.0863 104.039V104.039Z" fill="#C4C4C4"/>
<path d="M105.729 104.039H96.6588C96.2442 104.038 95.8467 103.744 95.5535 103.221C95.2604 102.698 95.0954 101.989 95.095 101.25V48.2541C95.0954 47.5146 95.2604 46.8056 95.5535 46.2827C95.8467 45.7598 96.2442 45.4657 96.6588 45.4648H105.729C106.144 45.4657 106.541 45.7598 106.835 46.2827C107.128 46.8056 107.293 47.5146 107.293 48.2541V101.25C107.293 101.989 107.128 102.698 106.835 103.221C106.541 103.744 106.144 104.038 105.729 104.039V104.039Z" fill="#C4C4C4"/>
<path d="M126.998 104.039H117.927C117.513 104.038 117.115 103.744 116.822 103.221C116.529 102.698 116.364 101.989 116.363 101.25V29.845C116.364 29.1055 116.529 28.3966 116.822 27.8737C117.115 27.3508 117.513 27.0566 117.927 27.0558H126.998C127.412 27.0566 127.81 27.3508 128.103 27.8737C128.396 28.3966 128.561 29.1055 128.562 29.845V101.25C128.561 101.989 128.396 102.698 128.103 103.221C127.81 103.744 127.412 104.038 126.998 104.039V104.039Z" fill="#C4C4C4"/>
<path d="M211.51 266.845C208.697 262.606 206.989 255.91 207.437 249.391C207.885 242.872 210.66 236.879 214.259 235.495C217.859 234.111 221.962 237.943 223.055 244.214C223.657 232.123 224.351 219.525 227.955 209.228C231.218 199.905 236.871 193.234 242.997 192.04C249.123 190.847 255.573 195.354 259.394 203.978C263.214 212.602 264.15 225.14 261.474 235.041C259.503 242.335 255.871 247.763 252.066 252.179C239.77 266.329 225.023 272.083 210.538 268.382L211.51 266.845Z" fill="#2F4A35"/>
<path d="M253.336 195.604C248.281 202.948 243.644 211.16 239.491 220.124C232.992 234.104 227.733 249.779 223.898 266.601C223.617 267.828 224.734 268.362 225.012 267.149C231.288 239.809 241.307 215.712 254.153 197.062C254.73 196.224 253.908 194.773 253.336 195.604V195.604Z" fill="#1B0D0D"/>
<path d="M181.845 113.276C181.49 113.274 181.135 113.211 180.786 113.087H180.786C180.723 113.064 180.659 113.04 180.595 113.013L103.998 81.2049C103.166 80.8592 102.614 79.9257 102.713 79.0331C102.754 78.7704 102.836 78.5333 102.949 78.348C103.061 78.1627 103.2 78.0364 103.35 77.9831C103.72 77.8013 104.109 77.7859 104.483 77.9381L181.556 106.646C183.291 107.292 184.496 109.192 184.299 110.97C184.195 111.901 183.736 112.623 183.005 113.002C182.627 113.19 182.237 113.282 181.845 113.276Z" fill="#193B59"/>
<path d="M165.619 108.875C166.016 109.291 166.458 109.546 166.916 109.624C167.374 109.701 167.836 109.599 168.269 109.323C168.702 109.048 169.096 108.607 169.423 108.031C169.75 107.454 170.003 106.757 170.162 105.988L181.337 106.404L178.241 97.6387L168.104 98.5878C167.362 98.1947 166.565 98.3009 165.864 98.8861C165.163 99.4713 164.606 100.495 164.3 101.763C163.994 103.031 163.959 104.455 164.202 105.766C164.445 107.077 164.95 108.183 165.619 108.875V108.875Z" fill="#FFB8B8"/>
<path d="M170.473 105.691L170.415 99.5825C170.411 98.952 170.539 98.3415 170.774 97.8712C171.01 97.4009 171.335 97.1048 171.687 97.0412L191.767 93.585L208.498 83.8013C209.003 83.506 209.536 83.3926 210.065 83.4679C210.595 83.5431 211.111 83.8055 211.584 84.2396C212.056 84.6738 212.475 85.2711 212.817 85.9969C213.159 86.7226 213.416 87.5623 213.575 88.4671C213.733 89.372 213.789 90.3239 213.739 91.2675C213.689 92.2111 213.534 93.1277 213.284 93.9638C213.034 94.8 212.693 95.5391 212.281 96.1381C211.869 96.7371 211.395 97.1841 210.885 97.4532L192.367 107.232L171.916 108.159C171.607 108.172 171.304 108.004 171.053 107.68C170.803 107.356 170.619 106.894 170.531 106.366C170.494 106.147 170.475 105.92 170.473 105.691V105.691Z" fill="#193B59"/>
<path d="M200.189 263.184L196.354 263.184L194.53 236.804L200.19 236.804L200.189 263.184Z" fill="#FFB8B8"/>
<path d="M201.167 269.813L188.803 269.813V269.534C188.803 268.407 188.927 267.29 189.169 266.249C189.411 265.208 189.766 264.261 190.212 263.464C190.659 262.667 191.19 262.035 191.774 261.604C192.358 261.173 192.983 260.951 193.615 260.951H193.616L201.167 260.951L201.167 269.813Z" fill="#AE7332"/>
<path d="M211.449 263.184L207.614 263.184L205.79 236.804L211.449 236.804L211.449 263.184Z" fill="#FFB8B8"/>
<path d="M212.427 269.813L200.063 269.813V269.534C200.063 268.407 200.187 267.29 200.429 266.249C200.671 265.208 201.025 264.261 201.472 263.464C201.919 262.667 202.45 262.035 203.034 261.604C203.617 261.173 204.243 260.951 204.875 260.951H204.875L212.427 260.951L212.427 269.813Z" fill="#AE7332"/>
<path d="M214.022 156.574L213.107 253.47C213.104 253.777 213.065 254.079 212.994 254.358C212.923 254.637 212.82 254.887 212.692 255.092C212.564 255.297 212.413 255.453 212.25 255.55C212.087 255.647 211.914 255.682 211.742 255.654L207.255 254.927C206.961 254.879 206.686 254.647 206.478 254.272C206.271 253.897 206.144 253.402 206.121 252.877L203.494 192.436C203.488 192.295 203.452 192.162 203.393 192.066C203.334 191.971 203.256 191.919 203.176 191.922C203.097 191.925 203.02 191.982 202.963 192.082C202.906 192.181 202.873 192.316 202.87 192.458L201.557 254.283C201.545 254.859 201.408 255.405 201.175 255.806C200.941 256.206 200.63 256.43 200.307 256.43H195.495C195.176 256.43 194.869 256.213 194.637 255.823C194.405 255.434 194.265 254.902 194.246 254.334L190.877 156.017L210.895 147.091L214.022 156.574Z" fill="#193B59"/>
<path d="M199.503 65.5907C203.746 65.5907 207.185 59.4564 207.185 51.8894C207.185 44.3223 203.746 38.188 199.503 38.188C195.26 38.188 191.821 44.3223 191.821 51.8894C191.821 59.4564 195.26 65.5907 199.503 65.5907Z" fill="#FFB8B8"/>
<path d="M190.192 159.457C190.059 159.228 189.952 158.953 189.879 158.65C189.806 158.347 189.767 158.021 189.765 157.691L189.247 91.6179C189.216 88.2568 189.783 84.9646 190.866 82.2141C191.95 79.4637 193.494 77.3965 195.278 76.3097C195.997 70.486 199.828 69.7566 202.061 69.8437C202.618 69.8651 203.164 70.1259 203.653 70.604C204.142 71.082 204.559 71.7633 204.869 72.5899L206.47 76.8724L209.998 80.5611C211.63 82.2609 212.918 84.8418 213.676 87.9315C214.433 91.0213 214.62 94.4601 214.211 97.7521L213.668 102.159C211.755 117.756 211.937 133.939 214.199 149.387L215.292 156.82C215.349 157.207 215.353 157.612 215.304 158.003C215.255 158.394 215.155 158.758 215.011 159.065C214.867 159.372 214.684 159.614 214.477 159.769C214.271 159.925 214.046 159.99 213.822 159.959L212.553 159.785C212.223 159.74 211.913 159.49 211.677 159.078C211.44 158.666 211.293 158.119 211.26 157.532L211.05 153.785C211.046 153.716 211.028 153.652 211 153.606C210.971 153.56 210.933 153.534 210.895 153.534C210.856 153.534 210.818 153.56 210.79 153.606C210.761 153.652 210.743 153.716 210.739 153.785L210.536 157.413C210.501 158.026 210.342 158.595 210.088 159.011C209.833 159.428 209.502 159.664 209.157 159.673L191.194 160.166C191.186 160.166 191.179 160.167 191.172 160.167C190.805 160.168 190.454 159.913 190.192 159.457V159.457Z" fill="#193B59"/>
<path d="M200.104 59.7871C200.135 61.724 200.889 62.8445 201.815 63.859C202.741 64.8735 203.823 65.3134 204.883 65.7377C205.025 65.8726 205.184 65.9397 205.346 65.9327C205.507 65.9256 205.664 65.8446 205.803 65.6975C205.941 65.5503 206.056 65.342 206.136 65.0926C206.216 64.8432 206.259 64.5611 206.26 64.2736L207.233 57.678C207.577 55.5711 207.827 53.4191 207.981 51.2421C208.215 47.0531 207.659 42.5468 206.019 39.5181C204.38 36.4893 201.537 35.4134 199.573 37.747C197.241 32.4364 186.585 44.1696 189.214 47.8624C189.681 48.5194 190.396 47.6881 190.99 47.6075C191.583 47.527 192.249 47.7132 192.626 48.5348C193.118 49.6082 192.904 51.2072 193.107 52.5462C193.191 53.0174 193.326 53.4542 193.505 53.8316C193.684 54.2089 193.904 54.5193 194.15 54.7448C194.397 54.9703 194.666 55.1064 194.942 55.1454C195.219 55.1844 195.497 55.1255 195.76 54.972C196.251 54.5407 196.713 54.0113 197.136 53.394C197.592 52.8531 198.167 52.4535 198.68 52.7946C199.355 53.2443 199.595 54.7194 199.656 56.0009C199.759 57.279 199.909 58.5438 200.104 59.7871V59.7871Z" fill="#E4E4E4"/>
<path d="M257.011 270H137.845C137.762 270 137.683 269.941 137.624 269.837C137.565 269.732 137.532 269.59 137.532 269.442C137.532 269.294 137.565 269.152 137.624 269.048C137.683 268.943 137.762 268.885 137.845 268.885H257.011C257.094 268.885 257.174 268.943 257.232 269.048C257.291 269.152 257.324 269.294 257.324 269.442C257.324 269.59 257.291 269.732 257.232 269.837C257.174 269.941 257.094 270 257.011 270Z" fill="#193B59"/>
<path opacity="0.2" d="M198.31 96.5083L197.059 123.843L190.491 152.294L200.187 124.401L198.31 96.5083Z" fill="black"/>
<path d="M188.955 162.888C189.313 162.375 189.604 161.727 189.807 160.992C190.01 160.256 190.121 159.45 190.13 158.63C190.139 157.81 190.048 156.996 189.862 156.246C189.676 155.496 189.4 154.828 189.054 154.288L193.238 135.803L187.545 137.854L184.444 155.093C183.975 156.191 183.748 157.558 183.806 158.935C183.863 160.312 184.202 161.603 184.758 162.564C185.314 163.524 186.049 164.088 186.822 164.148C187.595 164.208 188.354 163.76 188.955 162.888V162.888Z" fill="#FFB8B8"/>
<path d="M188.65 155.743L185.427 153.672C185.095 153.455 184.821 153.024 184.658 152.465C184.495 151.905 184.455 151.257 184.547 150.648L189.863 115.939L190.674 84.5696C190.698 83.6228 190.828 82.694 191.055 81.8374C191.283 80.9808 191.603 80.2134 191.999 79.5798C192.394 78.9462 192.856 78.459 193.358 78.1467C193.859 77.8344 194.391 77.7031 194.921 77.7604C195.452 77.8178 195.971 78.0626 196.448 78.4808C196.924 78.899 197.35 79.482 197.699 80.1962C198.049 80.9103 198.315 81.7412 198.483 82.6406C198.651 83.5399 198.717 84.4898 198.677 85.435L197.229 119.784L190.455 154.213C190.353 154.734 190.157 155.179 189.898 155.481C189.64 155.784 189.332 155.926 189.024 155.887C188.896 155.869 188.77 155.821 188.65 155.743Z" fill="#193B59"/>
<path d="M139.821 107.062H47.2408C47.1578 107.062 47.0782 107.003 47.0196 106.898C46.9609 106.794 46.928 106.652 46.928 106.504C46.928 106.356 46.9609 106.214 47.0196 106.109C47.0782 106.005 47.1578 105.946 47.2408 105.946H139.821C139.904 105.946 139.984 106.005 140.043 106.109C140.101 106.214 140.134 106.356 140.134 106.504C140.134 106.652 140.101 106.794 140.043 106.898C139.984 107.003 139.904 107.062 139.821 107.062Z" fill="#193B59"/>
</g>
<defs>
<filter id="filter0_d" x="0" y="0" width="267" height="278" filterUnits="userSpaceOnUse" color-interpolation-filters="sRGB">
<feFlood flood-opacity="0" result="BackgroundImageFix"/>
<feColorMatrix in="SourceAlpha" type="matrix" values="0 0 0 0 0 0 0 0 0 0 0 0 0 0 0 0 0 0 127 0"/>
<feOffset dy="4"/>
<feGaussianBlur stdDeviation="2"/>
<feColorMatrix type="matrix" values="0 0 0 0 0 0 0 0 0 0 0 0 0 0 0 0 0 0 0.25 0"/>
<feBlend mode="normal" in2="BackgroundImageFix" result="effect1_dropShadow"/>
<feBlend mode="normal" in="SourceGraphic" in2="effect1_dropShadow" result="shape"/>
</filter>
</defs>
</svg>
