<svg width="259" height="268" viewBox="0 0 259 268" fill="none" xmlns="http://www.w3.org/2000/svg">
<g clip-path="url(#clip0)">
<path d="M259 0H11.0374V214.79H259V0Z" fill="url(#paint0_linear)"/>
<path d="M256.21 25.3768H13.2071V208.293H256.21V25.3768Z" fill="#C4C4C4"/>
<path d="M256.21 4.46631H13.2071V25.3768H256.21V4.46631Z" fill="#193B59"/>
<path d="M253.421 38.5729H16.6166V198.143H253.421V38.5729Z" fill="url(#paint1_linear)"/>
<path opacity="0.5" d="M48.0769 41.415H19.5612V71.2582H48.0769V41.415Z" fill="#515059"/>
<path d="M76.9025 41.415H48.3868V71.2582H76.9025V41.415Z" fill="#C4C4C4"/>
<path opacity="0.2" d="M105.728 41.415H77.2125V71.2582H105.728V41.415Z" fill="#515059"/>
<path d="M134.554 41.415H106.038V71.2582H134.554V41.415Z" fill="#C4C4C4"/>
<path d="M163.379 41.415H134.864V71.2582H163.379V41.415Z" fill="#C4C4C4"/>
<path opacity="0.5" d="M192.205 41.415H163.689V71.2582H192.205V41.415Z" fill="#515059"/>
<path d="M221.031 41.415H192.515V71.2582H221.031V41.415Z" fill="#C4C4C4"/>
<path opacity="0.2" d="M249.856 41.415H221.341V71.2582H249.856V41.415Z" fill="#515059"/>
<path opacity="0.2" d="M48.0769 71.8673H19.5612V101.711H48.0769V71.8673Z" fill="#515059"/>
<path opacity="0.2" d="M76.9025 71.8673H48.3868V101.711H76.9025V71.8673Z" fill="#515059"/>
<path d="M105.728 71.8673H77.2125V101.711H105.728V71.8673Z" fill="#C4C4C4"/>
<path opacity="0.5" d="M134.554 71.8673H106.038V101.711H134.554V71.8673Z" fill="#515059"/>
<path d="M163.379 71.8673H134.864V101.711H163.379V71.8673Z" fill="#C4C4C4"/>
<path opacity="0.2" d="M192.205 71.8673H163.689V101.711H192.205V71.8673Z" fill="#515059"/>
<path opacity="0.5" d="M221.031 71.8673H192.515V101.711H221.031V71.8673Z" fill="#515059"/>
<path d="M249.856 71.8673H221.341V101.711H249.856V71.8673Z" fill="#C4C4C4"/>
<path d="M48.0769 101.913H19.5612V131.757H48.0769V101.913Z" fill="#C4C4C4"/>
<path d="M76.9025 101.913H48.3868V131.757H76.9025V101.913Z" fill="#C4C4C4"/>
<path opacity="0.2" d="M105.728 101.913H77.2125V131.757H105.728V101.913Z" fill="#515059"/>
<path d="M134.554 101.913H106.038V131.757H134.554V101.913Z" fill="#C4C4C4"/>
<path opacity="0.2" d="M163.379 101.913H134.864V131.757H163.379V101.913Z" fill="#515059"/>
<path d="M192.205 101.913H163.689V131.757H192.205V101.913Z" fill="#C4C4C4"/>
<path d="M221.031 101.913H192.515V131.757H221.031V101.913Z" fill="#C4C4C4"/>
<path opacity="0.2" d="M249.856 101.913H221.341V131.757H249.856V101.913Z" fill="#515059"/>
<path d="M48.0769 131.96H19.5612V161.803H48.0769V131.96Z" fill="#C4C4C4"/>
<path opacity="0.5" d="M76.9025 131.96H48.3868V161.803H76.9025V131.96Z" fill="#515059"/>
<path opacity="0.5" d="M105.728 131.96H77.2125V161.803H105.728V131.96Z" fill="#515059"/>
<path d="M134.554 131.96H106.038V161.803H134.554V131.96Z" fill="#C4C4C4"/>
<path d="M163.379 131.96H134.864V161.803H163.379V131.96Z" fill="#C4C4C4"/>
<path opacity="0.5" d="M192.205 131.96H163.689V161.803H192.205V131.96Z" fill="#515059"/>
<path d="M221.031 131.96H192.515V161.803H221.031V131.96Z" fill="#C4C4C4"/>
<path opacity="0.5" d="M249.856 131.96H221.341V161.803H249.856V131.96Z" fill="#515059"/>
<path opacity="0.5" d="M48.0769 162.412H19.5612V192.255H48.0769V162.412Z" fill="#515059"/>
<path opacity="0.2" d="M76.9025 162.412H48.3868V192.255H76.9025V162.412Z" fill="#515059"/>
<path d="M105.728 162.412H77.2125V192.255H105.728V162.412Z" fill="#C4C4C4"/>
<path opacity="0.5" d="M134.554 162.412H106.038V192.255H134.554V162.412Z" fill="#515059"/>
<path opacity="0.2" d="M163.379 162.412H134.864V192.255H163.379V162.412Z" fill="#515059"/>
<path d="M192.205 162.412H163.689V192.255H192.205V162.412Z" fill="#C4C4C4"/>
<path opacity="0.2" d="M221.031 162.412H192.515V192.255H221.031V162.412Z" fill="#515059"/>
<path d="M249.856 162.412H221.341V192.255H249.856V162.412Z" fill="#C4C4C4"/>
<path d="M30.5645 104.756H21.8858V116.125H30.5645V104.756Z" fill="#193B59"/>
<path d="M116.731 44.6633H108.053V56.0322H116.731V44.6633Z" fill="#193B59"/>
<path d="M115.802 104.756H107.123V116.125H115.802V104.756Z" fill="#193B59"/>
<path d="M145.247 133.584H136.568V144.953H145.247V133.584Z" fill="#193B59"/>
<path d="M202.589 104.756H193.91V116.125H202.589V104.756Z" fill="#193B59"/>
<path d="M53.1725 268C82.5388 268 106.345 236.815 106.345 198.346C106.345 159.877 82.5388 128.691 53.1725 128.691C23.8061 128.691 0 159.877 0 198.346C0 236.815 23.8061 268 53.1725 268Z" fill="url(#paint2_linear)"/>
<path d="M53.1725 266.12C81.7462 266.12 104.91 235.776 104.91 198.346C104.91 160.915 81.7462 130.571 53.1725 130.571C24.5987 130.571 1.43507 160.915 1.43507 198.346C1.43507 235.776 24.5987 266.12 53.1725 266.12Z" fill="#515059"/>
<path d="M53.1725 253.411C76.3882 253.411 95.2083 228.758 95.2083 198.346C95.2083 167.934 76.3882 143.28 53.1725 143.28C29.9567 143.28 11.1366 167.934 11.1366 198.346C11.1366 228.758 29.9567 253.411 53.1725 253.411Z" fill="#C4C4C4"/>
<path d="M53.1725 201.639C54.5608 201.639 55.6862 200.164 55.6862 198.346C55.6862 196.527 54.5608 195.053 53.1725 195.053C51.7842 195.053 50.6588 196.527 50.6588 198.346C50.6588 200.164 51.7842 201.639 53.1725 201.639Z" fill="url(#paint3_linear)"/>
<path d="M54.1209 198.752L52.5712 198.069L66.5191 155.306L68.0688 156.261L54.1209 198.752Z" fill="url(#paint4_linear)"/>
<path d="M66.6847 155.699L53.0325 198.057L54.0262 198.607L67.6784 156.249L66.6847 155.699Z" fill="#193B59"/>
<path d="M61.8697 221.083L52.8811 199.158L54.1209 198.346L63.4195 219.865L61.8697 221.083Z" fill="url(#paint5_linear)"/>
<path d="M54.0008 198.492L53.0531 199.167L62.0347 220.819L62.9825 220.144L54.0008 198.492Z" fill="#193B59"/>
<path d="M92.335 201.172C92.9308 201.172 93.4137 200.539 93.4137 199.759C93.4137 198.978 92.9308 198.346 92.335 198.346C91.7393 198.346 91.2564 198.978 91.2564 199.759C91.2564 200.539 91.7393 201.172 92.335 201.172Z" fill="#515059"/>
<path d="M20.6524 173.893C21.0393 173.015 20.8097 171.893 20.1396 171.386C19.4695 170.879 18.6127 171.18 18.2258 172.058C17.8389 172.936 18.0685 174.058 18.7386 174.565C19.4087 175.072 20.2655 174.771 20.6524 173.893Z" fill="url(#paint6_linear)"/>
<path d="M20.4981 226.805C21.1682 226.298 21.3978 225.176 21.0109 224.298C20.624 223.42 19.7672 223.12 19.0971 223.626C18.427 224.133 18.1974 225.256 18.5843 226.133C18.9712 227.011 19.828 227.312 20.4981 226.805Z" fill="url(#paint7_linear)"/>
<path d="M14.013 201.594C14.7867 201.594 15.414 200.772 15.414 199.759C15.414 198.745 14.7867 197.923 14.013 197.923C13.2392 197.923 12.612 198.745 12.612 199.759C12.612 200.772 13.2392 201.594 14.013 201.594Z" fill="url(#paint8_linear)"/>
<path d="M34.4367 155.74C35.1068 155.233 35.3364 154.11 34.9495 153.233C34.5627 152.355 33.7058 152.054 33.0357 152.561C32.3657 153.068 32.1361 154.19 32.5229 155.068C32.9098 155.946 33.7667 156.246 34.4367 155.74Z" fill="url(#paint9_linear)"/>
<path d="M53.8381 149.153C54.5082 148.646 54.7378 147.524 54.3509 146.646C53.9641 145.768 53.1072 145.467 52.4371 145.974C51.7671 146.481 51.5375 147.603 51.9243 148.481C52.3112 149.359 53.168 149.66 53.8381 149.153Z" fill="url(#paint10_linear)"/>
<path d="M73.2391 155.742C73.9091 155.235 74.1387 154.112 73.7519 153.235C73.365 152.357 72.5082 152.056 71.8381 152.563C71.168 153.07 70.9384 154.192 71.3253 155.07C71.7122 155.948 72.569 156.248 73.2391 155.742Z" fill="url(#paint11_linear)"/>
<path d="M87.6097 174.568C88.2798 174.061 88.5094 172.939 88.1225 172.061C87.7357 171.183 86.8788 170.883 86.2087 171.39C85.5387 171.896 85.3091 173.019 85.696 173.897C86.0828 174.774 86.9397 175.075 87.6097 174.568Z" fill="url(#paint12_linear)"/>
<path d="M87.2518 226.809C87.9219 226.302 88.1515 225.18 87.7646 224.302C87.3778 223.424 86.5209 223.124 85.8509 223.63C85.1808 224.137 84.9512 225.26 85.3381 226.137C85.7249 227.015 86.5818 227.316 87.2518 226.809Z" fill="url(#paint13_linear)"/>
<path d="M72.5203 245.163C73.1903 244.656 73.4199 243.534 73.033 242.656C72.6462 241.778 71.7893 241.477 71.1193 241.984C70.4492 242.491 70.2196 243.613 70.6065 244.491C70.9933 245.369 71.8502 245.67 72.5203 245.163Z" fill="url(#paint14_linear)"/>
<path d="M53.8366 250.813C54.5067 250.307 54.7362 249.184 54.3494 248.306C53.9625 247.429 53.1057 247.128 52.4356 247.635C51.7655 248.141 51.5359 249.264 51.9228 250.142C52.3097 251.019 53.1665 251.32 53.8366 250.813Z" fill="url(#paint15_linear)"/>
<path d="M35.1556 245.165C35.8257 244.658 36.0552 243.536 35.6684 242.658C35.2815 241.78 34.4247 241.479 33.7546 241.986C33.0845 242.493 32.8549 243.615 33.2418 244.493C33.6287 245.371 34.4855 245.672 35.1556 245.165Z" fill="url(#paint16_linear)"/>
<path d="M53.1725 148.928C53.7682 148.928 54.2511 148.295 54.2511 147.515C54.2511 146.734 53.7682 146.102 53.1725 146.102C52.5768 146.102 52.0938 146.734 52.0938 147.515C52.0938 148.295 52.5768 148.928 53.1725 148.928Z" fill="#193B59"/>
<path d="M73.508 155.03C73.8059 154.354 73.6291 153.49 73.1132 153.1C72.5973 152.71 71.9376 152.941 71.6398 153.617C71.3419 154.293 71.5187 155.157 72.0346 155.547C72.5505 155.937 73.2102 155.706 73.508 155.03Z" fill="#193B59"/>
<path d="M87.3145 174.154C87.8304 173.764 88.0072 172.9 87.7093 172.224C87.4115 171.548 86.7518 171.317 86.2359 171.707C85.72 172.097 85.5432 172.961 85.8411 173.637C86.1389 174.313 86.7986 174.544 87.3145 174.154Z" fill="#193B59"/>
<path d="M87.4848 225.923C87.7826 225.247 87.6059 224.383 87.0899 223.993C86.574 223.603 85.9144 223.834 85.6165 224.51C85.3186 225.186 85.4954 226.05 86.0113 226.44C86.5272 226.831 87.1869 226.599 87.4848 225.923Z" fill="#193B59"/>
<path d="M72.3591 244.701C72.875 244.31 73.0517 243.446 72.7539 242.77C72.456 242.095 71.7963 241.863 71.2804 242.253C70.7645 242.643 70.5878 243.508 70.8856 244.183C71.1835 244.859 71.8432 245.091 72.3591 244.701Z" fill="#193B59"/>
<path d="M34.3097 155.551C34.8256 155.161 35.0024 154.297 34.7046 153.621C34.4067 152.945 33.747 152.714 33.2311 153.104C32.7152 153.494 32.5384 154.358 32.8363 155.034C33.1342 155.71 33.7938 155.942 34.3097 155.551Z" fill="#193B59"/>
<path d="M20.5049 173.638C20.8027 172.962 20.626 172.098 20.1101 171.708C19.5942 171.317 18.9345 171.549 18.6366 172.225C18.3388 172.901 18.5155 173.765 19.0314 174.155C19.5473 174.545 20.207 174.314 20.5049 173.638Z" fill="#193B59"/>
<path d="M93.0014 201.396C93.6715 200.889 93.9011 199.767 93.5142 198.889C93.1274 198.011 92.2705 197.71 91.6004 198.217C90.9304 198.724 90.7008 199.846 91.0876 200.724C91.4745 201.602 92.3314 201.903 93.0014 201.396Z" fill="#193B59"/>
<path d="M20.3369 226.439C20.8528 226.049 21.0296 225.185 20.7317 224.509C20.4339 223.833 19.7742 223.602 19.2583 223.992C18.7424 224.382 18.5656 225.246 18.8635 225.922C19.1613 226.598 19.821 226.83 20.3369 226.439Z" fill="#193B59"/>
<path d="M35.4591 244.185C35.757 243.509 35.5803 242.645 35.0643 242.255C34.5484 241.865 33.8888 242.096 33.5909 242.772C33.293 243.448 33.4698 244.312 33.9857 244.702C34.5016 245.093 35.1613 244.861 35.4591 244.185Z" fill="#193B59"/>
<path d="M14.013 201.172C14.6087 201.172 15.0916 200.539 15.0916 199.759C15.0916 198.978 14.6087 198.346 14.013 198.346C13.4173 198.346 12.9343 198.978 12.9343 199.759C12.9343 200.539 13.4173 201.172 14.013 201.172Z" fill="#193B59"/>
<path d="M53.1725 250.585C53.7682 250.585 54.2511 249.953 54.2511 249.173C54.2511 248.392 53.7682 247.76 53.1725 247.76C52.5768 247.76 52.0938 248.392 52.0938 249.173C52.0938 249.953 52.5768 250.585 53.1725 250.585Z" fill="#193B59"/>
<path opacity="0.2" d="M13.2939 203.522C13.2967 191.388 16.3585 179.595 22.0038 169.974C27.6491 160.354 35.5617 153.445 44.5125 150.321C53.4632 147.198 62.951 148.033 71.5018 152.699C80.0526 157.365 87.1878 165.6 91.7989 176.124C89.5362 169.238 86.2244 163.031 82.0663 157.881C77.9082 152.731 72.9914 148.748 67.6169 146.174C62.2424 143.601 56.5235 142.491 50.8103 142.914C45.0972 143.338 39.5101 145.284 34.3913 148.634C29.2724 151.985 24.7296 156.669 21.041 162.4C17.3525 168.131 14.5958 174.788 12.9399 181.963C11.284 189.138 10.7636 196.681 11.4108 204.129C12.0579 211.577 13.8589 218.773 16.7034 225.278C14.4469 218.406 13.2867 211.003 13.2939 203.522Z" fill="#515059"/>
<path d="M53.1725 200.701C54.1653 200.701 54.9702 199.646 54.9702 198.346C54.9702 197.045 54.1653 195.991 53.1725 195.991C52.1796 195.991 51.3748 197.045 51.3748 198.346C51.3748 199.646 52.1796 200.701 53.1725 200.701Z" fill="#193B59"/>
</g>
<defs>
<linearGradient id="paint0_linear" x1="135.019" y1="214.79" x2="135.019" y2="0" gradientUnits="userSpaceOnUse">
<stop stop-color="#193B59"/>
<stop offset="1" stop-color="#808080" stop-opacity="0.1"/>
</linearGradient>
<linearGradient id="paint1_linear" x1="103171" y1="77908.6" x2="103171" y2="15197.7" gradientUnits="userSpaceOnUse">
<stop stop-color="#808080" stop-opacity="0.25"/>
<stop offset="0.54" stop-color="#808080" stop-opacity="0.12"/>
<stop offset="1" stop-color="#808080" stop-opacity="0.1"/>
</linearGradient>
<linearGradient id="paint2_linear" x1="18243.5" y1="92079.5" x2="18243.5" y2="44282.6" gradientUnits="userSpaceOnUse">
<stop stop-color="#E80E0E" stop-opacity="0"/>
<stop offset="0.54" stop-color="#808080" stop-opacity="0.12"/>
<stop offset="1" stop-color="#808080" stop-opacity="0.1"/>
</linearGradient>
<linearGradient id="paint3_linear" x1="913.117" y1="3465.63" x2="913.117" y2="3358.74" gradientUnits="userSpaceOnUse">
<stop stop-color="#808080" stop-opacity="0.25"/>
<stop offset="0.54" stop-color="#808080" stop-opacity="0.12"/>
<stop offset="1" stop-color="#808080" stop-opacity="0.1"/>
</linearGradient>
<linearGradient id="paint4_linear" x1="3068.57" y1="21421.7" x2="3068.57" y2="16773.1" gradientUnits="userSpaceOnUse">
<stop stop-color="#808080" stop-opacity="0.25"/>
<stop offset="0.54" stop-color="#808080" stop-opacity="0.12"/>
<stop offset="1" stop-color="#808080" stop-opacity="0.1"/>
</linearGradient>
<linearGradient id="paint5_linear" x1="2029.99" y1="12579" x2="2029.99" y2="11305.7" gradientUnits="userSpaceOnUse">
<stop stop-color="#808080" stop-opacity="0.25"/>
<stop offset="0.54" stop-color="#808080" stop-opacity="0.12"/>
<stop offset="1" stop-color="#808080" stop-opacity="0.1"/>
</linearGradient>
<linearGradient id="paint6_linear" x1="-1135.91" y1="3080.19" x2="-1111.45" y2="3069.41" gradientUnits="userSpaceOnUse">
<stop stop-color="#808080" stop-opacity="0.25"/>
<stop offset="0.54" stop-color="#808080" stop-opacity="0.12"/>
<stop offset="1" stop-color="#808080" stop-opacity="0.1"/>
</linearGradient>
<linearGradient id="paint7_linear" x1="707.878" y1="2716.3" x2="707.877" y2="2683.15" gradientUnits="userSpaceOnUse">
<stop stop-color="#808080" stop-opacity="0.25"/>
<stop offset="0.54" stop-color="#808080" stop-opacity="0.12"/>
<stop offset="1" stop-color="#808080" stop-opacity="0.1"/>
</linearGradient>
<linearGradient id="paint8_linear" x1="-219.278" y1="3141.57" x2="-200.844" y2="3117.2" gradientUnits="userSpaceOnUse">
<stop stop-color="#808080" stop-opacity="0.25"/>
<stop offset="0.54" stop-color="#808080" stop-opacity="0.12"/>
<stop offset="1" stop-color="#808080" stop-opacity="0.1"/>
</linearGradient>
<linearGradient id="paint9_linear" x1="-1914.09" y1="2371.6" x2="-1888.76" y2="2371.6" gradientUnits="userSpaceOnUse">
<stop stop-color="#808080" stop-opacity="0.25"/>
<stop offset="0.54" stop-color="#808080" stop-opacity="0.12"/>
<stop offset="1" stop-color="#808080" stop-opacity="0.1"/>
</linearGradient>
<linearGradient id="paint10_linear" x1="-1733.69" y1="2337.48" x2="-1708.36" y2="2337.48" gradientUnits="userSpaceOnUse">
<stop stop-color="#808080" stop-opacity="0.25"/>
<stop offset="0.54" stop-color="#808080" stop-opacity="0.12"/>
<stop offset="1" stop-color="#808080" stop-opacity="0.1"/>
</linearGradient>
<linearGradient id="paint11_linear" x1="-1563.31" y1="2422.44" x2="-1538" y2="2422.44" gradientUnits="userSpaceOnUse">
<stop stop-color="#808080" stop-opacity="0.25"/>
<stop offset="0.54" stop-color="#808080" stop-opacity="0.12"/>
<stop offset="1" stop-color="#808080" stop-opacity="0.1"/>
</linearGradient>
<linearGradient id="paint12_linear" x1="-1447.77" y1="2611.46" x2="-1422.44" y2="2611.46" gradientUnits="userSpaceOnUse">
<stop stop-color="#DF5656"/>
<stop offset="0.505208" stop-color="#AA6D6D" stop-opacity="0.507062"/>
<stop offset="0.578125" stop-color="#808080" stop-opacity="0.12"/>
<stop offset="0.9999" stop-color="#B36969" stop-opacity="0.592593"/>
<stop offset="1" stop-color="#808080" stop-opacity="0.1"/>
</linearGradient>
<linearGradient id="paint13_linear" x1="-1490.91" y1="3083.22" x2="-1465.58" y2="3083.22" gradientUnits="userSpaceOnUse">
<stop stop-color="#808080" stop-opacity="0.25"/>
<stop offset="0.54" stop-color="#808080" stop-opacity="0.12"/>
<stop offset="1" stop-color="#808080" stop-opacity="0.1"/>
</linearGradient>
<linearGradient id="paint14_linear" x1="-1638.06" y1="3229.89" x2="-1612.76" y2="3229.89" gradientUnits="userSpaceOnUse">
<stop stop-color="#808080" stop-opacity="0.25"/>
<stop offset="0.54" stop-color="#808080" stop-opacity="0.12"/>
<stop offset="1" stop-color="#808080" stop-opacity="0.1"/>
</linearGradient>
<linearGradient id="paint15_linear" x1="-1811.29" y1="3256.46" x2="-1785.96" y2="3256.46" gradientUnits="userSpaceOnUse">
<stop stop-color="#808080" stop-opacity="0.25"/>
<stop offset="0.54" stop-color="#808080" stop-opacity="0.12"/>
<stop offset="1" stop-color="#808080" stop-opacity="0.1"/>
</linearGradient>
<linearGradient id="paint16_linear" x1="-1975.85" y1="3180.93" x2="-1950.55" y2="3180.93" gradientUnits="userSpaceOnUse">
<stop stop-color="#808080" stop-opacity="0.25"/>
<stop offset="0.54" stop-color="#808080" stop-opacity="0.12"/>
<stop offset="1" stop-color="#808080" stop-opacity="0.1"/>
</linearGradient>
<clipPath id="clip0">
<rect width="259" height="268" fill="white"/>
</clipPath>
</defs>
</svg>
