<svg width="259" height="268" viewBox="0 0 259 268" fill="none" xmlns="http://www.w3.org/2000/svg">
<g clip-path="url(#clip0)">
<path d="M164.715 268C216.787 268 259 261.522 259 253.531C259 245.54 216.787 239.063 164.715 239.063C112.643 239.063 70.4307 245.54 70.4307 253.531C70.4307 261.522 112.643 268 164.715 268Z" fill="#3F3D56"/>
<path opacity="0.3" d="M118.63 118.221L220.969 118.221V3.8147e-05L118.63 3.8147e-05L118.63 118.221Z" fill="#3F3D56"/>
<path d="M214.437 10.8318H184.134V67.1572H214.437V10.8318Z" fill="#F2F2F2"/>
<path d="M136.231 14.2361L165.445 14.2361V10.8318L136.231 10.8318V14.2361Z" fill="#F2F2F2"/>
<path d="M184.134 79.2269H194.477V75.8227H184.134V79.2269Z" fill="#F2F2F2"/>
<path d="M184.497 85.4165H214.074V82.0122H184.497V85.4165Z" fill="#F2F2F2"/>
<path d="M130.243 26.6154L172.34 26.6154V23.2111L130.243 23.2111V26.6154Z" fill="#F2F2F2"/>
<path d="M130.243 36.2092L172.34 36.2092V32.8049L130.243 32.8049V36.2092Z" fill="#F2F2F2"/>
<path d="M130.243 45.803L172.34 45.803V42.3987L130.243 42.3987V45.803Z" fill="#F2F2F2"/>
<path d="M130.243 55.397L172.34 55.397V51.9927L130.243 51.9927V55.397Z" fill="#F2F2F2"/>
<path d="M130.243 64.9908L172.34 64.9908V61.5866L130.243 61.5866V64.9908Z" fill="#F2F2F2"/>
<path d="M130.243 74.5847L172.34 74.5847V71.1804L130.243 71.1804V74.5847Z" fill="#F2F2F2"/>
<path d="M130.243 84.1786L172.34 84.1786V80.7743L130.243 80.7743V84.1786Z" fill="#F2F2F2"/>
<path d="M188.685 42.9948C189.134 42.4504 189.629 42.0271 190.153 41.7397C193.475 39.6314 196.956 38.339 200.491 37.9013C203.565 37.5295 206.897 37.9711 209.298 41.2663C209.671 41.7337 209.977 42.341 210.191 43.0415C210.493 44.1532 210.402 45.4456 210.304 46.6595C210.282 47.1304 210.213 47.5912 210.098 48.0215C209.775 49.0708 208.98 49.4383 208.289 49.3125C207.598 49.1867 206.95 48.6881 206.268 48.4569C205.846 48.3315 205.42 48.2574 204.992 48.2352L200.717 47.8406C198.059 47.5951 195.366 47.3538 192.759 48.2687C191.957 48.5148 191.181 48.9706 190.46 49.6201C189.864 50.1903 189.463 51.0086 188.911 49.9553C187.94 48.1049 187.403 44.7039 188.685 42.9948Z" fill="#193B59"/>
<path d="M195.309 46.2186C195.309 46.2186 201.058 41.823 203.239 46.8948C205.419 51.9667 202.049 49.938 202.049 49.938L198.282 51.9667L194.119 50.6142L195.309 46.2186Z" fill="#F2F2F2"/>
<path d="M195.606 43.0064C195.606 43.0064 196.399 49.4308 195.804 51.1214C195.21 52.812 199.175 55.1789 199.175 55.1789L202.941 52.4739C202.941 52.4739 201.95 41.992 202.941 39.9633L195.606 43.0064Z" fill="#FFB9B9"/>
<path opacity="0.1" d="M195.606 43.0064C195.606 43.0064 196.399 49.4308 195.804 51.1214C195.21 52.812 199.175 55.1789 199.175 55.1789L202.941 52.4739C202.941 52.4739 201.95 41.992 202.941 39.9633L195.606 43.0064Z" fill="#592A2A"/>
<path d="M204.726 36.582C204.724 39.2716 204.097 41.8505 202.982 43.7523C201.867 45.6542 200.355 46.7236 198.778 46.7258C198.424 46.7268 198.07 46.6725 197.721 46.5635C196.608 46.2207 195.576 45.3436 194.745 44.0352C193.913 42.7268 193.318 41.0413 193.029 39.1764C192.74 37.3115 192.768 35.3446 193.111 33.5063C193.454 31.668 194.097 30.0346 194.965 28.7977C195.833 27.5608 196.89 26.7717 198.011 26.5229C199.133 26.2742 200.273 26.576 201.297 27.3932C202.322 28.2103 203.189 29.5088 203.796 31.1363C204.403 32.7638 204.726 34.6529 204.726 36.582Z" fill="#FFB9B9"/>
<path d="M208.317 67.4666H189.349L189.779 64.282L191.641 50.4452L193.793 47.9662L193.795 47.9631L194.806 46.7964L195.308 46.2177C195.308 46.2177 195.606 46.4498 195.949 46.7655C196.049 46.8614 196.15 46.9604 196.252 47.0656C196.254 47.0626 196.254 47.0656 196.254 47.0656C196.418 47.2286 196.575 47.4139 196.722 47.6196C196.749 47.6629 196.773 47.7001 196.796 47.7403C197.174 48.384 198.275 51.8007 200.097 50.0521C200.189 49.9659 200.278 49.8709 200.364 49.7674C200.838 49.2069 201.291 48.5939 201.719 47.9322C202.102 47.3349 202.35 46.8738 202.554 46.555C202.645 46.4 202.749 46.2686 202.862 46.165C202.948 46.0884 203.043 46.0491 203.14 46.0506C203.735 46.0506 204.528 48.0777 204.528 48.0777L204.551 48.1953L204.553 48.2045L207.056 61.017L208.317 67.4666Z" fill="#F2F2F2"/>
<path d="M189.349 67.4667H195.098C195.111 66.3333 195.076 65.1998 194.994 64.0748C194.818 61.8125 194.386 59.6338 194.114 57.3993C193.875 55.4412 193.759 53.4451 193.768 51.4449C193.77 51.1695 193.773 50.891 193.788 50.6124C193.802 49.9746 193.91 49.3532 194.102 48.8051C194.238 48.4492 194.425 48.1459 194.57 47.8055C194.62 47.694 194.665 47.5749 194.702 47.4495V47.4465C194.72 47.385 194.737 47.322 194.751 47.2577C194.783 47.1097 194.802 46.9541 194.806 46.7965C194.838 45.7753 194.296 44.7911 193.71 44.3702C192.887 43.8434 191.987 43.7815 191.142 44.1938C190.305 44.6066 189.496 45.171 188.729 45.8774C188.469 46.094 188.212 46.3169 187.963 46.5644C187.666 46.8515 187.393 47.2054 187.152 47.6167C186.535 48.703 186.265 50.2163 186.047 51.6802C185.839 52.7991 185.768 53.9788 185.838 55.1463C185.84 55.1835 185.846 55.2237 185.849 55.2608C186.065 57.1889 186.987 58.6373 187.479 60.4137C188.048 62.4748 188.01 64.8764 187.783 67.1232C187.773 67.2377 187.76 67.3522 187.747 67.4667H189.349V67.4667Z" fill="#193B59"/>
<path d="M212.749 55.0844C212.028 59.1311 211.504 63.2727 211.184 67.4667H202.989C202.775 66.4702 202.562 65.4727 202.349 64.4741C202.179 63.7205 202.033 62.9519 201.911 62.1715C201.782 61.2642 201.72 60.3324 201.728 59.3986C201.728 59.1758 201.733 58.9498 201.744 58.727C201.745 58.7253 201.746 58.7231 201.746 58.7208C201.746 58.7185 201.745 58.7163 201.744 58.7146C201.794 57.5369 201.954 56.3803 202.218 55.2887C202.339 54.7924 202.478 54.3097 202.635 53.8434C203.016 52.6674 203.477 51.5594 203.887 50.4082C204.143 49.7046 204.366 48.9679 204.553 48.2047C204.553 48.203 204.553 48.2013 204.554 48.1997C204.554 48.1981 204.554 48.1966 204.555 48.1954C204.8 47.2222 204.928 46.1751 204.931 45.1161C204.918 43.7513 203.564 41.3713 205.036 41.6004C207.045 41.9098 208.77 43.8813 210.343 46.1281C210.763 46.7285 211.173 47.3505 211.574 47.9633C212.194 48.9165 212.849 49.9563 213.036 51.3459C213.066 51.5674 213.084 51.7933 213.089 52.0206C213.078 53.0672 212.963 54.1032 212.749 55.0844Z" fill="#193B59"/>
<path d="M200.467 51.352C200.261 50.4013 199.945 49.5312 199.537 48.7935C199.126 48.2007 198.639 47.7802 198.116 47.5654C197.438 47.235 196.736 47.0636 196.031 47.0558C195.191 47.0469 194.218 47.431 193.861 48.7275C193.578 49.7571 193.798 50.9762 194.083 52.0042C194.205 52.5367 194.407 53.0041 194.67 53.3583C195.033 53.7755 195.501 53.7623 195.93 53.9021C196.596 54.1902 197.226 54.6774 197.792 55.3408L199.262 56.8569L201.788 59.461C201.721 59.3923 201.745 56.438 201.668 55.9539C201.418 54.3942 200.855 52.829 200.467 51.352Z" fill="#FFB9B9"/>
<path d="M204.576 31.2956C204.47 30.689 204.237 30.1701 203.921 29.8379C203.937 29.1881 203.891 28.5382 203.783 27.9143C203.423 26.0982 202.569 26.2023 201.764 25.3994C201.415 25.051 201.437 24.7431 201.255 24.171C201.017 23.4209 200.66 22.7999 200.225 22.3785C199.708 21.8173 199.163 21.2393 198.552 21.1682C197.268 21.019 196.284 23.0788 195.056 23.7399C194.515 24.0313 193.934 24.0433 193.39 24.3188C192.847 24.5943 192.304 25.252 192.223 26.2096C192.186 26.6517 192.252 27.1053 192.214 27.5472C192.138 28.4257 191.686 29.0409 191.384 29.7634C190.715 31.3612 190.791 33.6184 191.326 35.3568C191.439 35.7165 191.568 36.0607 191.712 36.3863C191.757 37.208 191.895 38.0069 192.119 38.7381C192.654 40.4765 193.575 41.7755 194.536 42.8548C194.458 42.2783 194.41 41.6907 194.394 41.0993C194.38 40.9023 194.395 40.7025 194.437 40.5177C194.545 40.1359 194.828 40.0343 195.043 39.8253C195.49 39.3921 195.665 38.4337 195.678 37.5574C195.691 36.681 195.582 35.8032 195.636 34.9315C195.638 34.731 195.665 34.5335 195.715 34.3517C195.764 34.1699 195.836 34.0079 195.924 33.876C196.089 33.7156 196.277 33.639 196.467 33.6553C197.383 33.5915 198.339 33.5629 199.147 32.8244C199.407 32.5294 199.687 32.2878 199.981 32.1048C200.667 31.7995 201.369 32.62 201.764 33.6241C202.16 34.6283 202.357 35.8232 202.722 36.8605C203.087 37.8978 203.717 38.8228 204.423 38.6999C204.463 38.7001 204.502 38.6859 204.538 38.6584C204.575 38.6309 204.607 38.5906 204.634 38.5401C204.664 38.4469 204.678 38.3403 204.672 38.2339L204.712 33.6337C204.745 32.8468 204.699 32.0561 204.576 31.2956Z" fill="#193B59"/>
<path d="M188.89 62.0168C189.019 63.8272 189.097 65.6439 189.124 67.4667H184.134V60.3146C184.16 60.1413 184.187 59.9711 184.22 59.8009C184.532 58.1606 185.187 56.7865 185.755 55.3598C185.782 55.2886 185.811 55.2174 185.838 55.1463C186.08 54.5444 186.288 53.9051 186.459 53.2368C186.541 52.9087 186.671 51.3211 186.809 51.185C187.401 50.6 187.881 53.1006 187.963 53.6577C188.253 55.6415 188.506 57.6438 188.696 59.6647C188.771 60.4477 188.835 61.2317 188.89 62.0168Z" fill="#193B59"/>
<path d="M214.107 67.4667H202.652C202.554 67.0737 202.457 66.6806 202.356 66.2907C201.642 63.535 200.718 60.9514 199.609 58.6063C199.426 58.2963 199.307 57.8934 199.269 57.4581C199.265 57.2774 199.291 57.0984 199.344 56.9413C199.518 56.3873 199.979 56.0623 200.353 55.7993C200.739 55.534 201.094 55.1524 201.401 54.6728C201.673 54.2558 201.881 53.7321 202.007 53.1471C202.041 52.9755 202.067 52.7995 202.084 52.621C202.136 52.7385 202.191 52.8593 202.243 52.9768C202.372 53.2678 202.503 53.5556 202.635 53.8434C203.905 56.6256 205.301 59.3676 207.055 61.0171C207.514 61.4528 207.998 61.8045 208.5 62.0663C208.548 62.1023 208.6 62.1209 208.652 62.1209C208.705 62.1209 208.757 62.1023 208.805 62.0663C208.879 61.9627 208.926 61.8139 208.937 61.6516C209.093 60.5375 209.148 59.3893 209.262 58.2597C209.472 56.2045 209.876 54.2208 210.458 52.3858C210.782 51.3552 211.839 47.5888 212.508 49.9625C212.7 50.6465 212.894 51.3325 213.089 52.0206C213.21 52.4569 213.334 52.8902 213.457 53.3266C213.912 54.711 214.12 56.2926 214.054 57.876C214.072 61.076 214.09 64.2729 214.107 67.4667Z" fill="#193B59"/>
<path opacity="0.1" d="M189.349 67.4666H190.342L189.779 64.2821L188.968 59.6925C188.978 60.4695 188.952 61.2466 188.89 62.0167C188.768 63.6083 188.501 65.1577 188.099 66.6094C188.021 66.891 187.938 67.1757 187.871 67.4666H189.349Z" fill="#592A2A"/>
<path opacity="0.1" d="M209.567 57.6798C209.427 58.3209 209.554 59.0298 209.662 59.6886C209.974 61.5995 210.12 63.5783 210.094 65.5615C210.099 65.5961 210.098 65.6322 210.092 65.6664C210.087 65.7006 210.076 65.7318 210.062 65.7572C210.047 65.7827 210.029 65.8015 210.009 65.8121C209.989 65.8226 209.968 65.8245 209.948 65.8177C209.49 65.8655 208.966 65.8705 208.656 65.2952L209.567 57.6798Z" fill="#592A2A"/>
<path opacity="0.3" d="M102.339 1.2168H0V119.438H102.339V1.2168Z" fill="#3F3D56"/>
<path d="M36.8348 12.0486H6.53227V68.374H36.8348V12.0486Z" fill="#F2F2F2"/>
<path d="M84.7382 12.0486H55.5244V15.4529H84.7382V12.0486Z" fill="#F2F2F2"/>
<path d="M17.238 77.0394H6.89519V80.4437H17.238V77.0394Z" fill="#F2F2F2"/>
<path d="M36.4719 83.229H6.89519V86.6333H36.4719V83.229Z" fill="#F2F2F2"/>
<path d="M90.7261 24.4279H48.6292V27.8321H90.7261V24.4279Z" fill="#F2F2F2"/>
<path d="M90.7261 34.0217H48.6292V37.426H90.7261V34.0217Z" fill="#F2F2F2"/>
<path d="M90.7261 43.6156H48.6292V47.0199H90.7261V43.6156Z" fill="#F2F2F2"/>
<path d="M90.7261 53.2095H48.6292V56.6138H90.7261V53.2095Z" fill="#F2F2F2"/>
<path d="M90.7261 62.8033H48.6292V66.2076H90.7261V62.8033Z" fill="#F2F2F2"/>
<path d="M90.7261 72.3972H48.6292V75.8015H90.7261V72.3972Z" fill="#F2F2F2"/>
<path d="M90.7261 81.9911H48.6292V85.3954H90.7261V81.9911Z" fill="#F2F2F2"/>
<path d="M36.011 68.6835H32.0717C31.7687 67.294 31.4995 65.8868 31.2642 64.4622C31.109 62.7871 30.6613 61.2308 29.9795 59.9964C29.7714 59.6006 29.586 59.1715 29.4261 58.7152C29.0884 57.5914 28.9665 56.3149 29.0777 55.0664C29.1004 54.7189 29.1343 54.3738 29.1793 54.0327C29.3517 52.7113 29.6402 51.4424 29.8816 50.1549C29.9326 49.8935 30.0256 49.6617 30.1501 49.4861C30.2746 49.3105 30.4255 49.198 30.5856 49.1615C30.8453 49.0873 31.112 49.1399 31.3549 49.3131C31.4087 49.3505 31.4603 49.396 31.5092 49.4493C31.9392 49.8919 32.1624 50.7956 32.342 51.6219C33.164 55.3852 33.9854 59.1484 34.8062 62.9117C34.9659 63.6421 35.1255 64.3745 35.2852 65.109C35.5211 66.186 35.7552 67.263 35.9548 68.3616C35.9747 68.47 35.9929 68.5752 36.011 68.6835Z" fill="#D0CDE1"/>
<path d="M19.6117 19.1515C18.6322 19.7157 17.7449 21.0352 17.5443 22.7649C17.4513 23.5667 17.5083 24.4002 17.4301 25.2066C17.2486 27.0767 16.3879 28.5049 15.5941 29.8315C14.8002 31.1581 13.9804 32.6996 13.9225 34.5926C13.859 36.6654 14.7405 38.6074 14.5879 40.6667C14.4107 43.0592 12.9291 44.6095 12.5629 46.9387C12.3183 48.494 12.618 50.1694 13.1111 51.5427C14.0506 54.1595 15.6566 55.9361 17.3669 56.8885C19.0772 57.8409 20.8987 58.0413 22.6977 58.0734C24.8883 58.1126 27.2666 57.7918 28.9125 55.326C29.8526 53.9049 30.443 51.9302 30.5653 49.7978C30.7217 46.9416 30.0227 43.9903 30.5048 41.242C30.8082 39.5124 31.5692 37.9327 31.4556 36.1378C31.3446 34.3827 30.4459 33.1387 29.8293 31.7209C29.2537 30.3971 28.9043 28.8338 28.562 27.2926L27.3906 22.0191C27.1604 20.9824 26.9075 19.8922 26.3944 19.2117C25.4337 17.938 23.8889 18.1883 22.7656 18.451C21.7235 18.6947 20.6138 18.5742 19.6117 19.1515Z" fill="#193B59"/>
<path d="M20.5178 36.5306C20.5178 36.5306 20.6324 42.397 20.2885 42.9837C19.9445 43.5703 21.6643 47.4813 21.6643 47.4813L24.7599 47.2857L26.365 45.1347L24.9892 42.0059C24.9892 42.0059 24.4159 36.9217 24.8746 35.7484C25.3332 34.5752 20.5178 36.5306 20.5178 36.5306Z" fill="#A0616A"/>
<path opacity="0.1" d="M20.5178 36.5306C20.5178 36.5306 20.6324 42.397 20.2885 42.9837C19.9445 43.5703 21.6643 47.4813 21.6643 47.4813L24.7599 47.2857L26.365 45.1347L24.9892 42.0059C24.9892 42.0059 24.4159 36.9217 24.8746 35.7484C25.3332 34.5752 20.5178 36.5306 20.5178 36.5306Z" fill="#592A2A"/>
<path d="M22.4095 38.7793C24.689 38.7793 26.537 35.6275 26.537 31.7396C26.537 27.8516 24.689 24.6998 22.4095 24.6998C20.1299 24.6998 18.282 27.8516 18.282 31.7396C18.282 35.6275 20.1299 38.7793 22.4095 38.7793Z" fill="#A0616A"/>
<path d="M24.5251 68.6835H27.8711C27.9963 68.2967 28.1142 67.8943 28.2503 67.5292V67.5261C28.3991 67.0844 28.6082 66.7107 28.86 66.4367C29.02 66.3117 29.1716 66.157 29.3118 65.9756C29.446 65.7273 29.5409 65.4248 29.5876 65.0966C29.8181 63.8687 29.9451 62.5912 29.965 61.3024C29.9705 60.8691 29.965 60.4297 29.9795 59.9964C29.9867 59.6578 30.0122 59.3211 30.0558 58.9906C30.1706 58.3185 30.3372 57.6754 30.5511 57.078C31.0047 55.6699 31.4596 54.2617 31.9156 52.8536C31.9978 52.4569 32.0294 52.0349 32.0082 51.6157C31.9984 51.0502 31.8966 50.5006 31.7142 50.0281C31.6507 49.8331 31.5818 49.6381 31.5092 49.4493C31.2293 48.6877 30.9033 47.9782 30.5366 47.3325C29.7586 45.9408 28.8143 44.8505 27.7676 44.1356C27.6363 44.0602 27.5113 43.9561 27.3957 43.8261C27.2592 43.6294 27.1438 43.3938 27.0545 43.1297C26.6916 42.1982 26.2489 41.1491 25.5938 41.2079C25.4872 41.1166 25.371 41.0625 25.252 41.0487C25.133 41.0349 25.0136 41.0616 24.9007 41.1274C24.8662 41.1427 24.8323 41.1613 24.7991 41.1831C24.5487 41.3722 24.3057 41.5882 24.0715 41.8299C23.4688 42.3635 22.7859 42.5749 22.1118 42.4365C22.0327 42.4271 21.9553 42.3935 21.8831 42.3375C21.8066 42.2547 21.736 42.1571 21.6727 42.0466C21.5071 41.8153 21.3085 41.6631 21.0971 41.6054C20.8858 41.5478 20.6692 41.5868 20.4696 41.7185C20.2822 41.8324 20.1166 42.0315 19.9906 42.2942C19.8708 42.551 19.7874 42.8605 19.6549 43.1019C19.312 43.7271 18.7458 43.7518 18.245 43.7487C17.2049 43.6992 16.165 43.8623 15.1476 44.2346C14.2541 44.5727 13.4191 45.2615 12.7089 46.2462L12.7071 46.2493C12.6091 46.3917 12.5184 46.5371 12.4277 46.6919C12.2213 47.0234 12.057 47.4237 11.945 47.8679C11.8071 48.4745 11.8252 49.1584 11.7 49.7743C11.5621 50.4644 11.2555 51.0277 11.1321 51.7209C11.0377 52.247 11.0504 52.8289 10.8944 53.3055C10.9017 53.3147 10.9071 53.324 10.9144 53.3333C11.5748 54.3237 12.1392 55.6235 12.8015 56.6045C13.1858 57.104 13.511 57.7237 13.7595 58.4305C13.8074 58.5893 13.8468 58.755 13.8775 58.9256C13.952 59.5173 13.9849 60.1219 13.9755 60.7268C14.0589 63.6204 14.9789 66.2448 16.0077 68.5474C16.0277 68.5938 16.0476 68.6402 16.0694 68.6835L24.5251 68.6835Z" fill="#D0CDE1"/>
<path d="M13.7595 58.4304C13.6035 60.278 13.4462 62.1246 13.2877 63.9701C13.2157 64.9585 13.1078 65.9383 12.9648 66.904C12.8704 67.5012 12.7488 68.0862 12.6635 68.6835H7.93852C7.94093 68.349 7.95608 68.015 7.98388 67.6839C8.10555 66.4942 8.3033 65.3308 8.57361 64.2146C9.12341 61.683 9.67261 59.1494 10.2212 56.6138C10.4553 55.5337 10.6567 54.4041 10.9143 53.3332C10.9597 53.1352 11.0087 52.9371 11.0613 52.7453C11.3353 51.7178 12.0956 52.1387 12.6581 52.2934C12.8125 52.3261 12.9631 52.3992 13.1045 52.51C13.2755 52.6707 13.4197 52.9029 13.5236 53.1847C14.0571 54.531 13.941 56.3105 13.8031 57.9198C13.7885 58.09 13.774 58.2602 13.7595 58.4304Z" fill="#D0CDE1"/>
<path d="M28.2503 67.5291C28.2575 67.5724 28.3356 68.0335 28.4644 68.6835H24.5251C26.4775 68.1109 28.2503 67.526 28.2503 67.526V67.5291Z" fill="#193B59"/>
<path d="M22.7535 31.7396C25.223 31.7396 27.2249 29.9011 27.2249 27.6331C27.2249 25.3652 25.223 23.5266 22.7535 23.5266C20.2839 23.5266 18.282 25.3652 18.282 27.6331C18.282 29.9011 20.2839 31.7396 22.7535 31.7396Z" fill="#193B59"/>
<path d="M167.899 44.7382H65.5603V162.96H167.899V44.7382Z" fill="#3F3D56"/>
<path opacity="0.1" d="M153.02 154.913C159.634 154.913 164.996 153.943 164.996 152.747C164.996 151.55 159.634 150.58 153.02 150.58C146.406 150.58 141.044 151.55 141.044 152.747C141.044 153.943 146.406 154.913 153.02 154.913Z" fill="#592A2A"/>
<path d="M102.395 55.5699H72.0926V111.895H102.395V55.5699Z" fill="#F2F2F2"/>
<path d="M81.8503 81.4308C81.9487 81.4818 82.0545 81.4731 82.1495 81.4061C82.2446 81.3391 82.3231 81.218 82.3717 81.0634C82.7908 79.9371 82.0192 78.4848 82.1863 77.1817C82.3201 76.1376 83.0157 75.5179 83.1579 74.4771C83.2961 73.4658 82.8703 72.3259 83.1581 71.4108C83.3836 70.6939 83.9468 70.5052 84.4181 70.6308C84.8894 70.7564 85.3367 71.1097 85.8128 71.1593C86.4472 71.2252 87.052 70.7489 87.6724 70.5129C88.2927 70.2769 89.0494 70.3693 89.4144 71.2568C89.8829 72.3965 89.4076 73.9834 89.5708 75.3473C89.7003 76.4303 90.2319 77.327 90.2433 78.4322C90.2474 78.825 89.642 78.5085 89.6741 78.8975C89.7063 79.2866 89.4202 78.944 89.6489 78.8978C89.7423 78.8588 89.826 78.7701 89.8879 78.6446C89.9498 78.519 89.9866 78.3631 89.9931 78.1995C90.0203 77.8755 90.3773 77.7675 90.3732 77.4402C90.3636 76.6733 91.1765 77.1904 91.3104 76.4581C91.6183 74.7509 91.5551 72.9117 91.1325 71.2775C90.9146 70.6099 90.7407 69.9034 90.6139 69.1707C90.4945 68.1538 90.6824 67.0622 90.4854 66.081C90.2199 64.7588 89.3416 64.0848 88.5261 63.9479C87.7106 63.811 86.8819 64.056 86.0711 63.8542C85.3447 63.6733 84.6415 63.1364 83.9089 63.2142C83.0298 63.3075 82.2648 64.2736 81.6554 65.3583C81.046 66.443 80.5291 67.6906 79.837 68.6199C79.6251 68.8686 79.4296 69.1556 79.2539 69.476C78.9014 70.2087 78.8657 71.2524 78.9637 72.1853C79.0618 73.1182 79.2752 74.008 79.3652 74.9432C79.4499 75.8221 79.4238 76.72 79.4603 77.6085C79.4688 78.5047 79.6279 79.3779 79.9186 80.1245C80.0442 80.4153 80.2071 80.6534 80.3948 80.8207C80.5825 80.988 80.7902 81.08 81.0019 81.0897C81.1486 81.0955 81.2725 80.8707 81.4205 80.9293C81.6056 81.0026 81.6861 81.3024 81.8503 81.4308Z" fill="#193B59"/>
<path d="M75.1864 112.205C75.3189 109.107 75.4187 106.792 75.4187 106.792L76.2751 102.942L79.0241 112.205L75.1864 112.205Z" fill="#575A89"/>
<path opacity="0.1" d="M75.1864 112.205C75.3189 109.107 75.4187 106.792 75.4187 106.792L76.2751 102.942L79.0241 112.205L75.1864 112.205Z" fill="#592A2A"/>
<path d="M81.557 81.7459C81.557 81.7459 84.1203 92.8744 82.6445 94.9941C81.1686 97.1138 90.8781 91.4171 90.8781 91.4171L90.6451 89.9598C90.6451 89.9598 87.4604 87.8401 89.0139 81.7459C90.5674 75.6517 81.557 81.7459 81.557 81.7459Z" fill="#A0616A"/>
<path opacity="0.1" d="M81.557 81.7459C81.557 81.7459 84.1203 92.8744 82.6445 94.9941C81.1686 97.1138 90.8781 91.4171 90.8781 91.4171L90.6451 89.9598C90.6451 89.9598 87.4604 87.8401 89.0139 81.7459C90.5674 75.6517 81.557 81.7459 81.557 81.7459Z" fill="#592A2A"/>
<path d="M85.2078 86.2503C88.2107 86.2503 90.6451 82.0983 90.6451 76.9765C90.6451 71.8548 88.2107 67.7028 85.2078 67.7028C82.2048 67.7028 79.7705 71.8548 79.7705 76.9765C79.7705 82.0983 82.2048 86.2503 85.2078 86.2503Z" fill="#A0616A"/>
<path d="M98.4123 96.9815C98.4123 96.9815 98.3905 97.7181 98.3524 99.0055C98.2744 101.627 98.1347 106.538 97.9949 112.205H76.9174C76.3667 110.947 75.9158 109.57 75.5765 108.11C75.4847 107.687 75.4315 107.243 75.4186 106.792C75.3025 103.279 77.1479 98.3773 78.4507 97.91C79.9259 97.3777 82.7221 92.3455 82.7221 92.3455C82.731 92.5371 82.7684 92.7216 82.8306 92.8819C82.8928 93.0421 82.9778 93.1727 83.0777 93.2616V93.2647C83.3032 93.4634 83.5554 93.5573 83.809 93.537C84.7199 93.537 88.7263 90.3834 90.0128 89.3529C90.2651 89.1517 90.412 89.031 90.412 89.031C91.8957 90.1231 93.4285 91.0101 94.9955 91.6832C95.7774 92.0159 96.4988 92.674 97.0951 93.5986C97.6913 94.5232 98.1439 95.6855 98.4123 96.9815Z" fill="#575A89"/>
<path d="M80.9182 80.5035C81.0166 80.5545 81.1224 80.5457 81.2174 80.4787C81.3125 80.4117 81.391 80.2906 81.4396 80.136C81.8587 79.0097 81.0871 77.5575 81.2542 76.2543C81.388 75.2102 82.0836 74.5906 82.2258 73.5498C82.364 72.5384 81.9382 71.3985 82.226 70.4834C82.4515 69.7665 83.0147 69.5778 83.486 69.7034C83.9573 69.829 84.4046 70.1824 84.8807 70.2319C85.5151 70.2979 86.1199 69.8215 86.7403 69.5855C87.3606 69.3495 88.1173 69.4419 88.4823 70.3295C88.9509 71.4691 88.4755 73.056 88.6387 74.4199C88.7682 75.5029 90.2444 76.2631 90.3783 75.5307C90.6862 73.8236 90.623 71.9843 90.2004 70.3502C89.9826 69.6826 89.8086 68.976 89.6818 68.2433C89.5624 67.2264 89.7503 66.1348 89.5533 65.1537C89.2879 63.8314 88.4095 63.1574 87.594 63.0205C86.7785 62.8836 85.9498 63.1287 85.139 62.9268C84.4126 62.7459 83.7094 62.209 82.9768 62.2868C82.0977 62.3802 81.3327 63.3462 80.7233 64.431C80.1139 65.5157 79.5969 66.7633 78.9049 67.6925C78.693 67.9412 78.4975 68.2282 78.3218 68.5486C77.9693 69.2813 77.9335 70.325 78.0316 71.2579C78.1297 72.1908 78.343 73.0807 78.4331 74.0159C78.5178 74.8948 78.4917 75.7927 78.5281 76.6812C78.5367 77.5773 78.6957 78.4505 78.9865 79.1971C79.1121 79.4879 79.275 79.7261 79.4627 79.8933C79.6504 80.0606 79.8581 80.1526 80.0698 80.1624C80.2165 80.1682 80.3404 79.9433 80.4884 80.002C80.6735 80.0752 80.754 80.375 80.9182 80.5035Z" fill="#193B59"/>
<path opacity="0.1" d="M101.107 112.205H94.9556C94.4875 106.35 94.101 100.228 94.101 100.228L95.3439 99.2996L97.8697 96.9816C97.8697 96.9816 98.0548 97.7305 98.3524 99.0056C98.9875 101.732 100.14 106.863 101.107 112.205Z" fill="#592A2A"/>
<path d="M101.649 112.205H94.707C93.6782 105.799 92.6639 98.8353 92.6639 98.8353L95.3058 95.5238L98.4123 96.9815C98.4123 96.9815 100.23 104.363 101.649 112.205Z" fill="#575A89"/>
<path d="M150.299 55.5699H121.085V58.9742H150.299V55.5699Z" fill="#C4C4C4"/>
<path d="M82.7983 120.561H72.4555V123.965H82.7983V120.561Z" fill="#C4C4C4"/>
<path d="M102.032 126.75H72.4555V130.155H102.032V126.75Z" fill="#C4C4C4"/>
<path d="M156.286 67.9492H114.19V71.3535H156.286V67.9492Z" fill="#F2F2F2"/>
<path d="M156.286 77.5431H114.19V80.9474H156.286V77.5431Z" fill="#F2F2F2"/>
<path d="M156.286 87.137H114.19V90.5412H156.286V87.137Z" fill="#F2F2F2"/>
<path d="M156.286 96.7308H114.19V100.135H156.286V96.7308Z" fill="#F2F2F2"/>
<path d="M156.286 106.325H114.19V109.729H156.286V106.325Z" fill="#F2F2F2"/>
<path d="M156.286 115.919H114.19V119.323H156.286V115.919Z" fill="#F2F2F2"/>
<path d="M156.286 125.512H114.19V128.917H156.286V125.512Z" fill="#F2F2F2"/>
<path d="M164.401 125.972L152.893 145.6L148.056 137.35C147.903 137.088 147.72 136.881 147.52 136.739C147.319 136.597 147.104 136.524 146.887 136.524C146.67 136.524 146.455 136.597 146.254 136.739C146.054 136.88 145.872 137.088 145.718 137.35L145.544 136.907C144.899 138.008 145.072 140.237 145.718 141.338L151.994 152.042C152.23 152.445 152.551 152.672 152.885 152.672C153.22 152.672 153.541 152.445 153.777 152.042L166.738 129.96C167.384 128.86 167.618 126.841 166.972 125.74C166.327 124.639 165.046 124.871 164.401 125.972Z" fill="#7B73DE"/>
<path opacity="0.1" d="M164.401 125.972L152.893 145.6L148.056 137.35C147.903 137.088 147.72 136.881 147.52 136.739C147.319 136.597 147.104 136.524 146.887 136.524C146.67 136.524 146.455 136.597 146.254 136.739C146.054 136.88 145.872 137.088 145.718 137.35L145.544 136.907C144.899 138.008 145.072 140.237 145.718 141.338L151.994 152.042C152.23 152.445 152.551 152.672 152.885 152.672C153.22 152.672 153.541 152.445 153.777 152.042L166.738 129.96C167.384 128.86 167.618 126.841 166.972 125.74C166.327 124.639 165.046 124.871 164.401 125.972Z" fill="#592A2A"/>
<path d="M164.401 125.102L152.893 144.729L148.056 136.48C147.903 136.218 147.72 136.01 147.52 135.869C147.319 135.727 147.104 135.654 146.887 135.654C146.67 135.654 146.455 135.727 146.254 135.869C146.054 136.01 145.872 136.218 145.718 136.48C145.564 136.742 145.443 137.053 145.36 137.395C145.277 137.737 145.234 138.104 145.234 138.474C145.234 138.844 145.277 139.211 145.36 139.553C145.443 139.895 145.564 140.206 145.718 140.468L151.994 151.171C152.23 151.575 152.551 151.801 152.885 151.802C153.22 151.802 153.541 151.575 153.777 151.172L166.738 129.09C166.891 128.829 167.013 128.518 167.096 128.176C167.179 127.834 167.222 127.467 167.222 127.096C167.222 126.726 167.18 126.359 167.097 126.017C167.014 125.675 166.892 125.364 166.738 125.102C166.428 124.574 166.008 124.276 165.569 124.276C165.131 124.276 164.711 124.574 164.401 125.102Z" fill="#7B73DE"/>
<path opacity="0.1" d="M249.063 238.783C249.063 260.913 230.977 254.068 208.832 254.068C186.688 254.068 168.87 260.913 168.87 238.783C168.87 216.653 186.954 211.84 209.098 211.84C231.243 211.84 249.063 216.653 249.063 238.783Z" fill="#592A2A"/>
<path d="M249.063 234.649C249.063 256.779 230.977 249.934 208.832 249.934C186.688 249.934 168.87 256.779 168.87 234.649C168.87 212.519 186.954 207.706 209.098 207.706C231.243 207.706 249.063 212.519 249.063 234.649Z" fill="#3F3D56"/>
<path d="M173.458 165.319L172.639 166.942C172.639 166.942 162.674 168.538 163.079 171.297C163.483 174.056 175.076 167.618 175.076 167.618L173.458 165.319Z" fill="#FFC1C7"/>
<path d="M191.521 163.94C191.521 163.94 180.872 170.377 175.076 167.618L177.772 176.815C177.772 176.815 191.521 176.125 193.948 171.987C196.374 167.848 191.521 163.94 191.521 163.94Z" fill="#C4C4C4"/>
<path opacity="0.1" d="M191.521 163.94C191.521 163.94 180.872 170.377 175.076 167.618L177.772 176.815C177.772 176.815 191.521 176.125 193.948 171.987C196.374 167.848 191.521 163.94 191.521 163.94Z" fill="#592A2A"/>
<path d="M184.31 114.624C188.255 114.624 191.454 109.168 191.454 102.439C191.454 95.7088 188.255 90.2533 184.31 90.2533C180.364 90.2533 177.165 95.7088 177.165 102.439C177.165 109.168 180.364 114.624 184.31 114.624Z" fill="#FFC1C7"/>
<path d="M190.402 113.878C190.647 114.679 190.959 115.416 191.327 116.067C192.306 117.882 193.473 119.373 194.771 120.462C190.716 121.867 186.62 122.906 182.501 123.574C182.936 120.962 182.363 118.167 181.594 115.79C180.824 113.413 179.844 111.197 179.362 108.608L184.191 108.83C185.067 108.87 185.946 108.915 186.822 108.841C187.477 108.787 188.568 108.118 189.179 108.364C190.471 108.885 189.837 111.924 190.402 113.878Z" fill="#FFC1C7"/>
<path d="M206.619 171.067L210.663 179.344C210.663 179.344 217.403 206.243 202.71 209.002C188.017 211.761 177.098 206.933 177.098 206.933C177.098 206.933 171.167 202.105 171.032 205.784C170.897 209.462 170.358 219.808 167.123 229.924L164.292 240.96C164.292 240.96 162.809 243.489 163.213 246.938C163.618 250.386 154.182 251.536 154.317 246.938C154.317 246.938 155.665 243.029 155.665 240.73C155.665 238.431 157.821 232.913 157.821 232.913L161.731 199.806C161.731 199.806 161.461 182.793 170.627 186.011C179.794 189.23 192.869 185.322 192.869 185.322L195.835 167.618L206.619 171.067Z" fill="#193B59"/>
<path opacity="0.1" d="M206.619 171.067L210.663 179.344C210.663 179.344 217.403 206.243 202.71 209.002C188.017 211.761 177.098 206.933 177.098 206.933C177.098 206.933 171.167 202.105 171.032 205.784C170.897 209.462 170.358 219.808 167.123 229.924L164.292 240.96C164.292 240.96 162.809 243.489 163.213 246.938C163.618 250.386 154.182 251.536 154.317 246.938C154.317 246.938 155.665 243.029 155.665 240.73C155.665 238.431 157.821 232.913 157.821 232.913L161.731 199.806C161.731 199.806 161.461 182.793 170.627 186.011C179.794 189.23 192.869 185.322 192.869 185.322L195.835 167.618L206.619 171.067Z" fill="#592A2A"/>
<path d="M191.454 170.462C191.454 170.462 203.788 162.56 210.663 179.344C210.663 179.344 212.415 205.324 205.406 206.473C198.396 207.623 189.23 207.393 187.073 203.485C184.916 199.576 171.301 188.54 171.301 188.54C171.301 188.54 164.524 182.644 163.195 190.306C161.865 197.967 161.731 199.806 161.731 199.806C161.731 199.806 154.721 208.543 151.89 210.152C151.89 210.152 150.003 214.75 148.925 214.75C147.846 214.75 141.241 217.279 141.915 208.772L152.834 191.759L163.753 173.596C163.753 173.596 166.853 165.779 174.806 169.918C180.084 172.597 185.438 174.822 190.847 176.585L191.454 170.462Z" fill="#193B59"/>
<path d="M162.809 246.478C162.809 246.478 165.37 257.514 163.213 258.893C161.057 260.273 156.473 259.353 156.473 259.353C156.473 259.353 151.081 258.203 149.733 258.433C148.385 258.663 142.859 256.824 143.667 253.145C144.476 249.467 148.655 250.386 148.655 250.386L152.429 247.398C152.429 247.398 152.834 245.098 153.777 246.018C154.721 246.938 157.417 250.386 162.809 246.478Z" fill="#CBCEDA"/>
<path d="M148.79 213.831C148.79 213.831 151.62 224.636 147.037 223.717C142.454 222.797 138.949 221.188 137.601 220.958C136.305 220.737 132.638 218.601 133.201 214.346C133.231 214.071 133.243 213.791 133.237 213.511C133.237 212.94 133.692 211.819 137.332 211.991C137.332 211.991 140.028 211.991 141.106 208.772C141.106 208.772 145.15 217.509 148.79 213.831Z" fill="#CBCEDA"/>
<path d="M179.389 121.866C179.389 121.866 189.095 111.52 197.183 121.866C205.271 132.212 210.663 179.344 210.663 179.344L191.926 172.217C191.926 172.217 191.117 166.699 190.039 165.779C188.96 164.86 188.825 160.951 188.825 160.951C188.825 160.951 183.029 157.962 183.433 146.467C183.838 134.971 179.389 121.866 179.389 121.866Z" fill="#C4C4C4"/>
<path d="M184.377 122.326H179.389C179.389 122.326 176.424 128.074 176.019 142.558L174.402 154.054C174.402 154.054 171.032 167.848 173.054 170.147C175.076 172.446 178.985 172.217 179.794 167.618C180.603 163.02 186.129 136.35 186.129 136.35L184.377 122.326Z" fill="#C4C4C4"/>
<path d="M182.947 86.5804C184.184 85.7156 185.537 85.4529 186.856 85.8217C188.175 86.1905 189.408 87.1763 190.418 88.6694C193.007 92.6099 193.529 99.0381 194.183 104.85C194.838 110.662 196.154 117.134 199.366 119.374C197.918 119.704 196.449 119.631 195.015 119.158L199.868 126.576L191.693 122.031C189.127 120.605 186.432 119.161 183.775 119.966C179.373 121.301 176.309 128.358 172.081 130.838L172.551 126.928L169.714 126.891C170.394 126.033 170.95 124.922 171.34 123.643C171.206 123.366 171.041 123.138 170.855 122.972C170.668 122.805 170.464 122.704 170.255 122.675C169.072 110.096 173.452 97.6617 179.159 89.4436C180.282 87.8271 181.524 86.2746 182.974 85.8702C184.424 85.4659 186.116 86.5716 186.621 88.9252" fill="#193B59"/>
<path d="M59.2582 201.862C59.2582 228.326 68.9921 249.74 81.0214 249.74L59.2582 201.862Z" fill="#3F3D56"/>
<path d="M81.0214 249.74C81.0214 222.979 91.8839 201.324 105.308 201.324L81.0214 249.74Z" fill="#C4C4C4"/>
<path d="M67.1434 204.261C67.1434 229.399 73.3506 249.74 81.0214 249.74L67.1434 204.261Z" fill="#C4C4C4"/>
<path d="M81.0214 249.74C81.0214 215.545 93.5768 187.875 109.093 187.875L81.0214 249.74Z" fill="#3F3D56"/>
<path d="M76.443 250.078C76.443 250.078 79.5294 249.915 80.4595 248.786C81.3897 247.656 85.2071 246.307 85.4379 248.119C85.6686 249.931 90.0762 257.13 86.5917 257.178C83.1071 257.226 78.4952 256.252 77.5668 255.288C76.6385 254.323 76.443 250.078 76.443 250.078Z" fill="#A8A8A8"/>
<path opacity="0.2" d="M86.6538 256.547C83.1693 256.595 78.5574 255.621 77.629 254.657C76.922 253.922 76.6403 251.287 76.546 250.071C76.4807 250.076 76.443 250.078 76.443 250.078C76.443 250.078 76.6385 254.323 77.5668 255.288C78.4952 256.252 83.1071 257.226 86.5917 257.178C87.5975 257.164 87.9449 256.554 87.9259 255.65C87.7861 256.196 87.4025 256.537 86.6538 256.547Z" fill="#592A2A"/>
</g>
<defs>
<clipPath id="clip0">
<rect width="259" height="268" fill="white"/>
</clipPath>
</defs>
</svg>
